<?xml version="1.0" encoding="UTF-8"?>
<svg version="1.1" xmlns="http://www.w3.org/2000/svg" width="164" height="164">
<path d="M0 0 C54.12 0 108.24 0 164 0 C164 54.12 164 108.24 164 164 C109.88 164 55.76 164 0 164 C0 109.88 0 55.76 0 0 Z " fill="#354043" transform="translate(0,0)"/>
<path d="M0 0 C54.12 0 108.24 0 164 0 C164 54.12 164 108.24 164 164 C109.88 164 55.76 164 0 164 C0 109.88 0 55.76 0 0 Z M11.875 13.0625 C3.23174023 24.16956 4.42711902 37.24574755 4.50390625 50.59765625 C4.50375104 52.80000354 4.50225845 55.00235109 4.49949646 57.20469666 C4.49811699 61.80496395 4.51059583 66.40491776 4.53344727 71.00512695 C4.56184688 76.88140406 4.55908373 82.75716155 4.54635715 88.63347721 C4.5393802 93.1761463 4.54721203 97.71869671 4.55961418 102.26135063 C4.56410789 104.42733746 4.56448381 106.59333711 4.56054878 108.75932503 C4.5576163 111.79301921 4.57424009 114.82601373 4.59594727 117.85961914 C4.59144562 118.74145874 4.58694397 119.62329834 4.58230591 120.53186035 C4.71951939 132.15859303 8.67158434 141.28170027 16.5625 149.75 C17.7690625 150.86375 17.7690625 150.86375 19 152 C22.31677779 155.15883599 24.69853637 158.05463378 27 162 C29.58439794 163.29219897 31.4328216 163.12295998 34.32766724 163.12025452 C35.45555727 163.12163201 36.5834473 163.12300951 37.74551582 163.12442875 C38.99368017 163.12083064 40.24184452 163.11723253 41.52783203 163.11352539 C42.86972488 163.11321917 44.21161789 163.11335234 45.55351067 163.11389065 C49.15431432 163.11411685 52.7550849 163.1083116 56.35588074 163.10128021 C59.7319652 163.09559471 63.10804152 163.09531761 66.48413086 163.09460449 C76.36442497 163.08935249 86.2447129 163.0753914 96.125 163.0625 C118.19375 163.041875 140.2625 163.02125 163 163 C163 117.46 163 71.92 163 25 C161.02 24.01 161.02 24.01 159 23 C157.63636792 21.02053408 156.30581356 19.0180755 155 17 C149.20409828 10.35175979 140.87812073 3.58516104 131.8020668 2.81300926 C129.13524329 2.7329756 126.47515737 2.71836712 123.80712891 2.7253418 C122.79497818 2.72023087 121.78282745 2.71511993 120.74000549 2.70985413 C117.4021306 2.69598154 114.06446275 2.69691325 110.7265625 2.69921875 C108.40017622 2.69533041 106.07379066 2.69099545 103.74740601 2.68623352 C98.87357277 2.67877622 93.99981198 2.67905898 89.12597656 2.68432617 C82.88956161 2.6901186 76.65344385 2.67319263 70.41707802 2.6499815 C65.61286697 2.63522771 60.80872722 2.63437474 56.00449753 2.63749123 C53.70566596 2.6369788 51.40683032 2.63175578 49.10802078 2.62167931 C45.88903923 2.6093013 42.67063295 2.61611529 39.45166016 2.62768555 C38.50802109 2.62004181 37.56438202 2.61239807 36.59214783 2.60452271 C26.78748166 2.68216102 18.76127834 5.84912344 11.875 13.0625 Z " fill="#E9E9E3" transform="translate(0,0)"/>
<path d="M0 0 C0.11612238 9.5101329 0.20483048 19.02001976 0.25906086 28.53070831 C0.2850959 32.94748573 0.32038126 37.36377621 0.37719727 41.78027344 C0.43173634 46.04673512 0.46146633 50.31273002 0.47438622 54.57951355 C0.48358704 56.20297081 0.50155426 57.82640405 0.52865028 59.44966125 C0.77378402 74.75095011 0.77378402 74.75095011 -3.53279114 80.65124512 C-7.30773241 84.12141941 -10.94752934 84.39226471 -15.875 84.23828125 C-18 84 -18 84 -20.5 83 C-22.80459338 79.92720883 -23.17587188 76.73727755 -23 73 C-21.22789841 68.41338413 -18.34961589 66.17480795 -14 64 C-11.03 64 -8.06 64 -5 64 C-5 51.46 -5 38.92 -5 26 C-16.62299517 29.24397246 -16.62299517 29.24397246 -28.24487305 32.49194336 C-29.70878145 32.89972103 -31.17272752 33.30736353 -32.63671875 33.71484375 C-33.3884436 33.92564575 -34.14016846 34.13644775 -34.91467285 34.3536377 C-38.59237917 35.37545946 -42.23969179 36.32073948 -46 37 C-46.00586624 37.56296783 -46.01173248 38.12593567 -46.01777649 38.70596313 C-46.081837 44.57887936 -46.16628904 50.451254 -46.26245117 56.32373047 C-46.2956531 58.51376188 -46.3236997 60.70387789 -46.34643555 62.89404297 C-46.38006809 66.0469153 -46.43238948 69.19901573 -46.48828125 72.3515625 C-46.49467117 73.32678864 -46.5010611 74.30201477 -46.50764465 75.30679321 C-46.64832677 81.84903072 -47.55371526 86.3378666 -52.125 91.3125 C-56.03613437 93.60816583 -59.46540113 94.45345989 -64 94 C-66.98956484 92.72485908 -67.84660506 91.65033224 -70 89 C-70.63062567 85.07610692 -70.39086746 82.85990842 -68.75 79.25 C-66.17423499 75.93830213 -63.97659717 74.32553239 -60 73 C-57.36 73 -54.72 73 -52 73 C-52 53.53 -52 34.06 -52 14 C-24.05970149 5.85074627 -24.05970149 5.85074627 -13.625 3.0625 C-11.95244141 2.60907227 -11.95244141 2.60907227 -10.24609375 2.14648438 C-2.25396825 0 -2.25396825 0 0 0 Z " fill="#F1F4F2" transform="translate(116,36)"/>
<path d="M0 0 C-0.33 0.99 -0.66 1.98 -1 3 C-3.64942151 3.98462749 -6.17829298 4.76699027 -8.90234375 5.48046875 C-10.09169273 5.80704216 -10.09169273 5.80704216 -11.30506897 6.14021301 C-13.84616042 6.83449338 -16.391676 7.51080449 -18.9375 8.1875 C-20.65069095 8.65449861 -22.36358603 9.12258406 -24.07617188 9.59179688 C-36.61122637 13 -36.61122637 13 -39 13 C-39 32.47 -39 51.94 -39 72 C-44.445 72.99 -44.445 72.99 -50 74 C-53.54149922 76.19572952 -54.68723982 77.06171945 -56 81 C-56.45062935 85.13076907 -56.65023534 87.16098666 -54.0625 90.5 C-49.77214974 92.60139604 -46.5417295 92.27168426 -42 91 C-37.40411443 88.40232555 -35.50332233 84.93919478 -34 80 C-33.56672154 76.85327478 -33.51245605 73.73989659 -33.48828125 70.56640625 C-33.47033005 69.68846909 -33.45237885 68.81053192 -33.43388367 67.9059906 C-33.38006321 65.12487471 -33.34597636 62.34392763 -33.3125 59.5625 C-33.27930192 57.66729436 -33.24480997 55.77211092 -33.20898438 53.87695312 C-33.12435325 49.25142445 -33.057408 44.62594338 -33 40 C-32.34 40 -31.68 40 -31 40 C-31 39.34 -31 38.68 -31 38 C-30.34 38 -29.68 38 -29 38 C-29 46.58 -29 55.16 -29 64 C-27.68 64.33 -26.36 64.66 -25 65 C-24.67 65.99 -24.34 66.98 -24 68 C-24.66 68.66 -25.32 69.32 -26 70 C-26.33 69.67 -26.66 69.34 -27 69 C-27.66 71.97 -28.32 74.94 -29 78 C-28.01 78 -27.02 78 -26 78 C-25.67 79.32 -25.34 80.64 -25 82 C-26.98 82.99 -26.98 82.99 -29 84 C-29.33 83.67 -29.66 83.34 -30 83 C-30.45375 84.134375 -30.9075 85.26875 -31.375 86.4375 C-33 90 -33 90 -35 91 C-34.01 92.485 -34.01 92.485 -33 94 C-33.375 96.1875 -33.375 96.1875 -34 98 C-34.99 97.67 -35.98 97.34 -37 97 C-37.33 96.01 -37.66 95.02 -38 94 C-38.99 95.65 -39.98 97.3 -41 99 C-43.97 98.505 -43.97 98.505 -47 98 C-47 98.66 -47 99.32 -47 100 C-53.0546875 100.9765625 -53.0546875 100.9765625 -55 101 C-57.35953094 98.64046906 -57.49141413 97.22104383 -58 94 C-59.32 93.67 -60.64 93.34 -62 93 C-61.01 92.505 -61.01 92.505 -60 92 C-60.66 90.35 -61.32 88.7 -62 87 C-62.66386719 86.97421875 -63.32773437 86.9484375 -64.01171875 86.921875 C-69.67962625 86.55780503 -72.73855961 86.01076743 -77 82 C-78.32 81.67 -79.64 81.34 -81 81 C-81 77.37 -81 73.74 -81 70 C-79.515 69.505 -79.515 69.505 -78 69 C-77.9071875 69.62390625 -77.814375 70.2478125 -77.71875 70.890625 C-77.12184975 73.45123278 -77.12184975 73.45123278 -73.5 74.75 C-69.15820894 76.17636457 -64.52270559 76.95708707 -60 76 C-59.34 75.01 -58.68 74.02 -58 73 C-58.74765625 72.97421875 -59.4953125 72.9484375 -60.265625 72.921875 C-68.34563439 72.45653414 -68.34563439 72.45653414 -71.6875 70.125 C-73 68 -73 68 -73 65 C-73.66 64.34 -74.32 63.68 -75 63 C-71.75253024 61.37626512 -68.13857055 61.74887318 -64.5625 61.625 C-57.3033736 61.31306745 -50.94373565 60.28151314 -44 58 C-44 51.73 -44 45.46 -44 39 C-45.4025 39.495 -46.805 39.99 -48.25 40.5 C-54.20501584 42.3172183 -59.82571718 42.2864358 -66 42 C-63.70253043 37.02041664 -60.60228955 34.83195804 -55.75 32.3125 C-51.46677947 30.81337281 -47.50388541 30.29617387 -43 30 C-43.2475 28.8553125 -43.2475 28.8553125 -43.5 27.6875 C-45.20077973 15.14424951 -45.20077973 15.14424951 -42.25 9.875 C-39.90516476 7.92097063 -38.88955028 7.62670873 -36 7 C-34.44216152 6.55987793 -32.88629654 6.11273506 -31.33203125 5.66015625 C-30.43806641 5.40169922 -29.54410156 5.14324219 -28.62304688 4.87695312 C-26.7684107 4.33950817 -24.91423283 3.80047885 -23.06054688 3.25976562 C-6.22632144 -1.59649268 -6.22632144 -1.59649268 0 0 Z " fill="#192021" transform="translate(103,37)"/>
<path d="M0 0 C3.90168516 1.47994954 4.90715049 3.51191749 7 7 C8.98 7.99 8.98 7.99 11 9 C11 54.54 11 100.08 11 147 C-22.04125 147.0928125 -22.04125 147.0928125 -55.75 147.1875 C-66.18898926 147.22846802 -66.18898926 147.22846802 -76.83886719 147.27026367 C-85.32666016 147.28381348 -85.32666016 147.28381348 -89.29815674 147.28633118 C-92.07647625 147.29094298 -94.85438928 147.3003874 -97.63262939 147.31672668 C-101.17528391 147.337286 -104.7176888 147.34347691 -108.26039743 147.33921683 C-110.17550707 147.3405285 -112.09058904 147.35662866 -114.00562668 147.37328625 C-115.13627171 147.36915376 -116.26691673 147.36502127 -117.43182373 147.36076355 C-118.41629864 147.36352893 -119.40077354 147.36629431 -120.41508102 147.36914349 C-123.45106911 146.93558435 -124.77460524 146.07295712 -127 144 C-128.04892238 142.36368108 -129.04906703 140.69514137 -130 139 C-130.98244845 137.65368175 -131.97676564 136.31558703 -133 135 C-132.505 135.268125 -132.01 135.53625 -131.5 135.8125 C-122.59888255 140.04053079 -114.53086601 141.14893517 -104.73120117 141.20874023 C-103.71090317 141.21852402 -102.69060516 141.2283078 -101.63938904 141.23838806 C-98.27392869 141.26822292 -94.90850762 141.28969131 -91.54296875 141.30859375 C-90.39025293 141.31516558 -89.23753712 141.3217374 -88.04989052 141.32850838 C-81.95116019 141.36104557 -75.85244695 141.38551336 -69.75366211 141.4050293 C-64.71466672 141.42285449 -59.67622962 141.4577037 -54.63745117 141.50756836 C-48.54207478 141.56780837 -42.44721666 141.59850948 -36.35155678 141.60820198 C-34.03395868 141.61674809 -31.71637413 141.6355451 -29.39894676 141.6649456 C-26.15101333 141.70394186 -22.90509519 141.70488385 -19.65698242 141.69702148 C-18.70758789 141.71702209 -17.75819336 141.73702271 -16.7800293 141.75762939 C-9.85673144 141.68269814 -5.1555798 139.67649419 0 135 C2.06851748 131.7014061 2.06851748 131.7014061 3 128 C3.34624924 126.82327728 3.69249847 125.64655457 4.04924011 124.43417358 C5.28109573 119.43281516 5.28794716 114.55654531 5.2746582 109.42822266 C5.27976913 108.39948532 5.28488007 107.37074799 5.29014587 106.31083679 C5.303984 102.92851861 5.3030894 99.54640553 5.30078125 96.1640625 C5.30467139 93.80048548 5.30900672 91.43690916 5.31376648 89.07333374 C5.32121631 84.125689 5.32094638 79.17811563 5.31567383 74.23046875 C5.30988141 67.90687175 5.32681103 61.58356786 5.3500185 55.2600193 C5.36478827 50.38024197 5.3656231 45.50053471 5.36250877 40.62073898 C5.36302037 38.29006749 5.36822755 35.95939191 5.37832069 33.62874222 C5.39073029 30.3624928 5.38386596 27.09680757 5.37231445 23.83056641 C5.37995819 22.8785585 5.38760193 21.9265506 5.39547729 20.94569397 C5.33698448 13.41968822 4.2353973 6.35309595 0 0 Z " fill="#93816F" transform="translate(152,16)"/>
<path d="M0 0 C0.33 0 0.66 0 1 0 C1 15.84 1 31.68 1 48 C2.32 48 3.64 48 5 48 C4.91621094 47.16597656 4.83242187 46.33195312 4.74609375 45.47265625 C4.1388338 38.76204941 3.98363527 32.66283545 5 26 C4.01 26.33 3.02 26.66 2 27 C2.31710938 26.00871094 2.63421875 25.01742187 2.9609375 23.99609375 C4.09383459 20.03095395 4.406169 16.18381716 4.625 12.0625 C4.66367188 11.37865234 4.70234375 10.69480469 4.7421875 9.99023438 C4.83522412 8.32720487 4.91863787 6.66364153 5 5 C17.3626635 1.30439952 17.3626635 1.30439952 22 2 C23.875 3.1875 23.875 3.1875 25 5 C25.125 7.5625 25.125 7.5625 25 10 C25.33 10.66 25.66 11.32 26 12 C25.67 12.66 25.34 13.32 25 14 C25.66 14 26.32 14 27 14 C27 14.66 27 15.32 27 16 C26.34 16.66 25.68 17.32 25 18 C25.66 18.66 26.32 19.32 27 20 C25.75 21.5 25.75 21.5 24 23 C22.68 23 21.36 23 20 23 C19.67 25.31 19.34 27.62 19 30 C20.32 30 21.64 30 23 30 C23 31.32 23 32.64 23 34 C24.485 34.495 24.485 34.495 26 35 C24.68 35.66 23.36 36.32 22 37 C22 37.66 22 38.32 22 39 C18.535 39.495 18.535 39.495 15 40 C15 40.66 15 41.32 15 42 C14.505 42.495 14.505 42.495 14 43 C16.64 43.33 19.28 43.66 22 44 C22.33 45.65 22.66 47.3 23 49 C20.95990245 49.65077296 18.91784331 50.29539824 16.875 50.9375 C15.16957031 51.47697266 15.16957031 51.47697266 13.4296875 52.02734375 C10.28567301 52.91898339 7.23105607 53.53351014 4 54 C4 53.01 4 52.02 4 51 C3.01 51.495 3.01 51.495 2 52 C1.67 58.27 1.34 64.54 1 71 C0.67 71 0.34 71 0 71 C0 47.57 0 24.14 0 0 Z " fill="#404747" transform="translate(116,36)"/>
<path d="M0 0 C1.98 0 3.96 0 6 0 C6 54.12 6 108.24 6 164 C-48.12 164 -102.24 164 -158 164 C-158 152.78 -158 141.56 -158 130 C-155.03 129.01 -155.03 129.01 -152 128 C-151.84144531 128.64066406 -151.68289062 129.28132812 -151.51953125 129.94140625 C-149.88927597 135.98505981 -147.80875556 140.0589117 -144 145 C-144 145.66 -144 146.32 -144 147 C-143.41476563 147.25007812 -142.82953125 147.50015625 -142.2265625 147.7578125 C-139.70467294 149.16476141 -138.24913938 150.68712804 -136.375 152.875 C-135.48941406 153.89207031 -135.48941406 153.89207031 -134.5859375 154.9296875 C-133 157 -133 157 -131.9140625 159.1953125 C-131.13317503 161.18168204 -131.13317503 161.18168204 -129 162 C-127.22644238 162.10515147 -125.44896677 162.14659554 -123.67233276 162.15821838 C-122.54208679 162.1680072 -121.41184082 162.17779602 -120.24734497 162.18788147 C-119.00153656 162.19363693 -117.75572815 162.1993924 -116.47216797 162.20532227 C-115.16489746 162.21522186 -113.85762695 162.22512146 -112.51074219 162.23532104 C-108.92008572 162.2624003 -105.32941606 162.28339347 -101.73871374 162.30332303 C-97.98839244 162.32516398 -94.23811191 162.35256191 -90.48782349 162.37937927 C-83.38346934 162.42933177 -76.2790926 162.4742611 -69.17469418 162.51740164 C-61.08771312 162.56675218 -53.00077298 162.62167839 -44.91383147 162.67708123 C-28.27592534 162.79094053 -11.63798174 162.89777095 5 163 C4.96285392 142.3379492 4.90302362 121.67607536 4.81609726 101.0141716 C4.7762673 91.42074041 4.74389495 81.82739171 4.72900391 72.23388672 C4.71600785 63.87336134 4.68909574 55.51301718 4.64538693 47.15259385 C4.6227259 42.72469963 4.60709209 38.29702932 4.60811615 33.86907196 C4.60886004 29.70259337 4.59101928 25.53661059 4.55883217 21.37026024 C4.55030301 19.84003395 4.54860364 18.30975224 4.55419731 16.77951241 C4.56081402 14.69151645 4.54297661 12.60510888 4.51898193 10.51727295 C4.51529476 9.34843945 4.51160759 8.17960594 4.50780869 6.97535324 C3.90029083 3.41578394 2.76262237 2.23624127 0 0 Z " fill="#EDEDE7" transform="translate(158,0)"/>
<path d="M0 0 C3.90168516 1.47994954 4.90715049 3.51191749 7 7 C8.98 7.99 8.98 7.99 11 9 C11 54.54 11 100.08 11 147 C-22.04125 147.0928125 -22.04125 147.0928125 -55.75 147.1875 C-66.18898926 147.22846802 -66.18898926 147.22846802 -76.83886719 147.27026367 C-85.32666016 147.28381348 -85.32666016 147.28381348 -89.29815674 147.28633118 C-92.07647625 147.29094298 -94.85438928 147.3003874 -97.63262939 147.31672668 C-101.17528391 147.337286 -104.7176888 147.34347691 -108.26039743 147.33921683 C-110.17550707 147.3405285 -112.09058904 147.35662866 -114.00562668 147.37328625 C-115.13627171 147.36915376 -116.26691673 147.36502127 -117.43182373 147.36076355 C-118.41629864 147.36352893 -119.40077354 147.36629431 -120.41508102 147.36914349 C-123.45106911 146.93558435 -124.77460524 146.07295712 -127 144 C-128.04892238 142.36368108 -129.04906703 140.69514137 -130 139 C-130.98244845 137.65368175 -131.97676564 136.31558703 -133 135 C-130.07909997 136.30936898 -128.24380538 137.75619462 -126 140 C-125.01 140.33 -124.02 140.66 -123 141 C-123 141.66 -123 142.32 -123 143 C-122.0409375 143.2165625 -122.0409375 143.2165625 -121.0625 143.4375 C-119 144 -119 144 -118 145 C-114.90265393 145.10605509 -111.82748627 145.14677371 -108.72949219 145.14526367 C-107.75536377 145.14862228 -106.78123535 145.1519809 -105.77758789 145.15544128 C-102.53400417 145.16499304 -99.29047194 145.1668973 -96.046875 145.16796875 C-93.79258198 145.17118127 -91.53828916 145.17454533 -89.28399658 145.17805481 C-84.54251625 145.18405861 -79.80105418 145.18589372 -75.05957031 145.18530273 C-69.01077839 145.18520169 -62.96210539 145.19878796 -56.91334152 145.21607494 C-52.24789911 145.22725388 -47.58248476 145.22922005 -42.91703033 145.22869301 C-40.6893193 145.22986679 -38.4616074 145.23425449 -36.23390961 145.24202538 C-16.83278898 146.49145799 -16.83278898 146.49145799 0.75 140.5 C2.99861495 138.22437759 2.99861495 138.22437759 4 136 C4.66 136 5.32 136 6 136 C6.89515571 129.13141256 7.13760241 122.43546851 7.11352539 115.51342773 C7.11374443 113.84359581 7.11374443 113.84359581 7.1139679 112.14002991 C7.11327539 108.48786418 7.10551416 104.83575048 7.09765625 101.18359375 C7.09578972 98.64054899 7.09436692 96.09750387 7.09336853 93.55445862 C7.08995024 87.56236638 7.0820817 81.57029622 7.07201904 75.5782128 C7.06080518 68.75105071 7.05533422 61.92388769 7.05032361 55.09671867 C7.03989751 41.06446894 7.02233108 27.03223548 7 13 C6.34 13 5.68 13 5 13 C4.80664062 12.31292969 4.61328125 11.62585937 4.4140625 10.91796875 C4.15367187 10.01691406 3.89328125 9.11585937 3.625 8.1875 C3.36976563 7.29417969 3.11453125 6.40085937 2.8515625 5.48046875 C2.04733339 2.79532104 2.04733339 2.79532104 0 0 Z " fill="#A4998D" transform="translate(152,16)"/>
<path d="M0 0 C0 11.88 0 23.76 0 36 C-3.3 36.99 -6.6 37.98 -10 39 C-12.98106546 40.6426279 -14.56703638 41.60008431 -15.5859375 44.89453125 C-16.11592189 48.06854889 -16.211424 50.365728 -15.1875 53.4375 C-14.06705694 55.15043305 -14.06705694 55.15043305 -12 56 C-9.92435324 56.19758231 -9.92435324 56.19758231 -7.625 56.1875 C-6.85414062 56.20167969 -6.08328125 56.21585938 -5.2890625 56.23046875 C-1.83380834 55.8825848 0.19734742 54.9497695 2.44921875 52.28515625 C7.22946488 43.70484065 6.89181143 34.57960604 7 25 C7.99 24.67 8.98 24.34 10 24 C11.93703061 29.81109182 11.21715636 36.06636277 10 42 C10.99 42.33 11.98 42.66 13 43 C12.69964844 43.69867188 12.39929688 44.39734375 12.08984375 45.1171875 C11.51943359 46.48230469 11.51943359 46.48230469 10.9375 47.875 C10.36322266 49.23238281 10.36322266 49.23238281 9.77734375 50.6171875 C8.6976002 52.98066862 8.6976002 52.98066862 10 55 C8.33333333 56 6.66666667 57 5 58 C4.13375 58.556875 3.2675 59.11375 2.375 59.6875 C0 61 0 61 -3 61 C-2.79375 61.61875 -2.5875 62.2375 -2.375 62.875 C-2.25125 63.57625 -2.1275 64.2775 -2 65 C-2.99 65.99 -2.99 65.99 -4 67 C-5.32 66.34 -6.64 65.68 -8 65 C-8 64.34 -8 63.68 -8 63 C-10.64 63.33 -13.28 63.66 -16 64 C-16.66 62.35 -17.32 60.7 -18 59 C-18.66 59 -19.32 59 -20 59 C-20.33 58.34 -20.66 57.68 -21 57 C-21.99 57 -22.98 57 -24 57 C-23.835 56.4225 -23.67 55.845 -23.5 55.25 C-22.85537969 52.73335631 -22.85537969 52.73335631 -23 49 C-21.83795541 44.31885584 -20.47680045 39.47680045 -17 36 C-14.8125 34.75 -14.8125 34.75 -13 34 C-13 33.01 -13 32.02 -13 31 C-10.03 30.67 -7.06 30.34 -4 30 C-4.12568359 28.69289063 -4.12568359 28.69289063 -4.25390625 27.359375 C-4.86140556 20.25394006 -5.01228075 13.51994274 -4.25390625 6.42578125 C-3.94794941 3.90922218 -3.94794941 3.90922218 -4 1 C-2 0 -2 0 0 0 Z " fill="#1B2223" transform="translate(110,63)"/>
<path d="M0 0 C0 12.54 0 25.08 0 38 C-1.98 38 -3.96 38 -6 38 C-6 37.67 -6 37.34 -6 37 C-4.35 37 -2.7 37 -1 37 C-1 25.12 -1 13.24 -1 1 C-2.32 1.33 -3.64 1.66 -5 2 C-4.814375 3.19625 -4.62875 4.3925 -4.4375 5.625 C-3.87050735 9.27895263 -4.29920243 12.376617 -5 16 C-20.09070662 20.79039997 -20.09070662 20.79039997 -27.1875 22.8125 C-28.00605469 23.04582031 -28.82460937 23.27914062 -29.66796875 23.51953125 C-32 24 -32 24 -37 24 C-37 20.37 -37 16.74 -37 13 C-37.66 13 -38.32 13 -39 13 C-39 13.66 -39 14.32 -39 15 C-39.66 15 -40.32 15 -41 15 C-41 28.2 -41 41.4 -41 55 C-41.33 55 -41.66 55 -42 55 C-42 40.48 -42 25.96 -42 11 C-34.74067972 8.58022657 -27.51848027 6.38933813 -20.15063477 4.35571289 C-18.17243395 3.80833112 -16.19659498 3.25291658 -14.22070312 2.69726562 C-12.96580078 2.34986328 -11.71089844 2.00246094 -10.41796875 1.64453125 C-8.71290161 1.17043823 -8.71290161 1.17043823 -6.97338867 0.68676758 C-4 0 -4 0 0 0 Z " fill="#4A504F" transform="translate(111,62)"/>
<path d="M0 0 C0.33 0.66 0.66 1.32 1 2 C1.66 2 2.32 2 3 2 C3.82200425 8.24723226 0.92551394 12.71317837 -2 18 C-2.66 18 -3.32 18 -4 18 C-4.37125 18.86625 -4.37125 18.86625 -4.75 19.75 C-6.59640826 23.07353486 -8.71840895 25.39617878 -12.1869812 27.03039551 C-23.12274072 29.94522353 -34.33489677 29.47300161 -45.5703125 29.46875 C-47.86091292 29.47586195 -50.15151158 29.48356244 -52.44210815 29.49182129 C-57.22463955 29.50521441 -62.00700597 29.50685695 -66.78955078 29.50097656 C-72.90024327 29.49506936 -79.01014432 29.52573943 -85.12068367 29.56609344 C-89.84435244 29.59200477 -94.56783109 29.594845 -99.29156113 29.59120178 C-101.5440966 29.59288814 -103.79664132 29.6024837 -106.0491066 29.62034607 C-109.2027048 29.64261569 -112.35470553 29.63279418 -115.50830078 29.61523438 C-116.88480804 29.63512924 -116.88480804 29.63512924 -118.28912354 29.65542603 C-126.33400699 29.55195396 -132.67343607 26.80909843 -138.8125 21.625 C-148 10.6 -148 10.6 -148 3 C-146.0625 3.3125 -146.0625 3.3125 -144 4 C-143.67 4.99 -143.34 5.98 -143 7 C-143.33 7.66 -143.66 8.32 -144 9 C-143.01 8.67 -142.02 8.34 -141 8 C-138.875 12.625 -138.875 12.625 -140 16 C-139.34 16 -138.68 16 -138 16 C-137.67 17.32 -137.34 18.64 -137 20 C-136.01 19.67 -135.02 19.34 -134 19 C-133.67 20.32 -133.34 21.64 -133 23 C-130.03 23.33 -127.06 23.66 -124 24 C-124 24.66 -124 25.32 -124 26 C-111.23006825 25.91552775 -98.46026048 25.8206174 -85.69050598 25.71247292 C-79.76065397 25.66258022 -73.83081918 25.61624948 -67.90087891 25.578125 C-62.17550744 25.54118358 -56.45028244 25.49479944 -50.72503662 25.44193649 C-48.54346289 25.42343961 -46.36185781 25.40831438 -44.18023682 25.39665604 C-41.11870404 25.37971306 -38.05750326 25.35065844 -34.99609375 25.31884766 C-34.09913284 25.31668747 -33.20217194 25.31452728 -32.2780304 25.31230164 C-26.84832737 25.24048351 -22.23723938 24.41586927 -17 23 C-15.68 23 -14.36 23 -13 23 C-12.67 21.35 -12.34 19.7 -12 18 C-11.34 18 -10.68 18 -10 18 C-10 18.66 -10 19.32 -10 20 C-9.34 20 -8.68 20 -8 20 C-7.938125 19.443125 -7.87625 18.88625 -7.8125 18.3125 C-7 16 -7 16 -4.375 13.5 C-3.199375 12.2625 -3.199375 12.2625 -2 11 C-2.3574765 9.06874034 -2.3574765 9.06874034 -3 7 C-2.20582042 4.53751028 -1.12540802 2.34084869 0 0 Z " fill="#150F07" transform="translate(154,126)"/>
<path d="M0 0 C-0.33 0.99 -0.66 1.98 -1 3 C-3.64942151 3.98462749 -6.17829298 4.76699027 -8.90234375 5.48046875 C-9.69524307 5.69818436 -10.4881424 5.91589996 -11.30506897 6.14021301 C-13.84616042 6.83449338 -16.391676 7.51080449 -18.9375 8.1875 C-20.65069095 8.65449861 -22.36358603 9.12258406 -24.07617188 9.59179688 C-36.61122637 13 -36.61122637 13 -39 13 C-39 32.47 -39 51.94 -39 72 C-40.98 72 -42.96 72 -45 72 C-45 71.67 -45 71.34 -45 71 C-43.35 71 -41.7 71 -40 71 C-40.33 62.09 -40.66 53.18 -41 44 C-41.99 44 -42.98 44 -44 44 C-44 42.35 -44 40.7 -44 39 C-44.58265625 39.2165625 -45.1653125 39.433125 -45.765625 39.65625 C-52.63896743 41.99059271 -58.77773277 42.33505363 -66 42 C-63.70253043 37.02041664 -60.60228955 34.83195804 -55.75 32.3125 C-51.46677947 30.81337281 -47.50388541 30.29617387 -43 30 C-43.2475 28.8553125 -43.2475 28.8553125 -43.5 27.6875 C-45.20077973 15.14424951 -45.20077973 15.14424951 -42.25 9.875 C-39.90516476 7.92097063 -38.88955028 7.62670873 -36 7 C-34.44216152 6.55987793 -32.88629654 6.11273506 -31.33203125 5.66015625 C-30.43806641 5.40169922 -29.54410156 5.14324219 -28.62304688 4.87695312 C-26.7684107 4.33950817 -24.91423283 3.80047885 -23.06054688 3.25976562 C-6.22632144 -1.59649268 -6.22632144 -1.59649268 0 0 Z " fill="#2B3435" transform="translate(103,37)"/>
<path d="M0 0 C0 3.96 0 7.92 0 12 C-4.08296316 13.10555011 -8.1663554 14.20947208 -12.25 15.3125 C-13.95929688 15.7755957 -13.95929688 15.7755957 -15.703125 16.24804688 C-23.115861 18.24864324 -30.54531584 20.1622033 -38 22 C-39.32 22.33 -40.64 22.66 -42 23 C-42 19.04 -42 15.08 -42 11 C-34.95471914 8.10330216 -27.6819639 6.23224219 -20.31665039 4.35571289 C-18.17367977 3.80897403 -16.0330791 3.25358576 -13.89257812 2.69726562 C-12.5261734 2.34584155 -11.15964136 1.99491209 -9.79296875 1.64453125 C-8.5608667 1.32846924 -7.32876465 1.01240723 -6.05932617 0.68676758 C-3 0 -3 0 0 0 Z " fill="#2F393B" transform="translate(111,45)"/>
<path d="M0 0 C0 1.65 0 3.3 0 5 C-4.62 6.32 -9.24 7.64 -14 9 C-14 9.66 -14 10.32 -14 11 C-15.98 11.99 -17.96 12.98 -20 14 C-20 14.66 -20 15.32 -20 16 C-13.04958914 16.26618595 -6.76485645 15.6120509 0 14 C0 15.65 0 17.3 0 19 C-9.3983929 22.3955484 -19.38532784 25.54904147 -29.125 21.625 C-32 20 -32 20 -34 18 C-34 17.01 -34 16.02 -34 15 C-34.66 14.67 -35.32 14.34 -36 14 C-35.67 13.01 -35.34 12.02 -35 11 C-35.39397335 8.36195411 -35.39397335 8.36195411 -36 6 C-35.67 6 -35.34 6 -35 6 C-34.67 4.35 -34.34 2.7 -34 1 C-30.53058454 1.45822468 -27.32604951 1.89131683 -24 3 C-17.59809266 3.47421536 -12.06018869 2.22743348 -5.85546875 0.65625 C-3 0 -3 0 0 0 Z " fill="#3A4648" transform="translate(59,62)"/>
<path d="M0 0 C0.33 0 0.66 0 1 0 C1.31727165 7.79078167 -0.55522332 15.84752481 -5.375 22.0625 C-6.24125 22.701875 -7.1075 23.34125 -8 24 C-8.83365585 24.68961319 -9.66731171 25.37922638 -10.52622986 26.08973694 C-15.2102014 28.66550259 -18.94566344 28.5552816 -24.20532227 28.50170898 C-25.72613152 28.50981346 -25.72613152 28.50981346 -27.27766418 28.51808167 C-30.62421014 28.5305709 -33.96989563 28.51406766 -37.31640625 28.49609375 C-39.6532343 28.49624882 -41.99006261 28.49773907 -44.32688904 28.50050354 C-49.22691203 28.50188792 -54.1266425 28.48932914 -59.02661133 28.46655273 C-65.27826356 28.43827847 -71.52942579 28.44087518 -77.78111362 28.45364285 C-82.61042895 28.46063439 -87.43963312 28.45276935 -92.26893425 28.44038582 C-94.57199615 28.43589724 -96.87507011 28.43551161 -99.17813301 28.43945122 C-124.89267444 28.46283305 -124.89267444 28.46283305 -133 25 C-133.66 24.01 -134.32 23.02 -135 22 C-134.21702545 22.32433517 -133.4340509 22.64867035 -132.62734985 22.98283386 C-127.99009221 24.28319408 -123.75433944 24.28739528 -118.96240234 24.2746582 C-117.46844437 24.2823246 -117.46844437 24.2823246 -115.94430542 24.29014587 C-112.65812127 24.30402217 -109.37214744 24.30308585 -106.0859375 24.30078125 C-103.79155398 24.30467064 -101.49717118 24.30900581 -99.20278931 24.31376648 C-94.39281889 24.32122551 -89.58292186 24.32094069 -84.77294922 24.31567383 C-78.63333244 24.30989455 -72.49401885 24.32677462 -66.35445213 24.3500185 C-61.61355862 24.36481375 -56.87273701 24.36561941 -52.13182449 24.36250877 C-49.86979194 24.36301957 -47.60775511 24.3682115 -45.34574509 24.37832069 C-27.15529213 25.51296066 -27.15529213 25.51296066 -10.9715271 19.16743469 C-9.35667092 17.36064628 -9.35667092 17.36064628 -8.0859375 15.42578125 C-7.72757812 14.95527344 -7.36921875 14.48476562 -7 14 C-6.34 14 -5.68 14 -5 14 C-3.07794619 9.41664092 -1.54269924 4.72065967 0 0 Z " fill="#76614F" transform="translate(157,130)"/>
<path d="M0 0 C0.66 0.33 1.32 0.66 2 1 C2.08138426 3.87557703 2.14067851 6.74882262 2.1875 9.625 C2.21263672 10.43324219 2.23777344 11.24148437 2.26367188 12.07421875 C2.3402655 18.35489578 1.24800304 22.55364375 -3.125 27.3125 C-7.03613437 29.60816583 -10.46540113 30.45345989 -15 30 C-17.98956484 28.72485908 -18.84660506 27.65033224 -21 25 C-21.63062567 21.07610692 -21.39086746 18.85990842 -19.75 15.25 C-17.17423499 11.93830213 -14.97659717 10.32553239 -11 9 C-9.60560336 8.93334624 -8.20830125 8.91461801 -6.8125 8.9375 C-4.9253125 8.9684375 -4.9253125 8.9684375 -3 9 C-3 6.69 -3 4.38 -3 2 C-2.34 2 -1.68 2 -1 2 C-0.67 1.34 -0.34 0.68 0 0 Z " fill="#E2DED1" transform="translate(67,100)"/>
<path d="M0 0 C0.99 0.33 1.98 0.66 3 1 C3.53461846 8.12824612 3.59770823 13.45890833 -0.515625 19.4765625 C-2.82951761 21.85134702 -4.93827473 22.85606893 -8.21875 23.30078125 C-11.61108409 23.31820762 -14.3267562 23.26929752 -17.5 22 C-19.80459338 18.92720883 -20.17587188 15.73727755 -20 12 C-18.22789841 7.41338413 -15.34961589 5.17480795 -11 3 C-7.96617875 2.68769487 -5.03673805 2.75706096 -2 3 C-1.67 2.34 -1.34 1.68 -1 1 C-0.67 0.67 -0.34 0.34 0 0 Z " fill="#E6E4D9" transform="translate(113,97)"/>
<path d="M0 0 C1.875 1.1875 1.875 1.1875 3 3 C3.125 5.5625 3.125 5.5625 3 8 C3.33 8.66 3.66 9.32 4 10 C3.67 10.66 3.34 11.32 3 12 C3.66 12 4.32 12 5 12 C5 12.66 5 13.32 5 14 C4.34 14.66 3.68 15.32 3 16 C3.66 16.66 4.32 17.32 5 18 C4.01 18.99 3.02 19.98 2 21 C2 20.01 2 19.02 2 18 C0.69675781 18.41572266 0.69675781 18.41572266 -0.6328125 18.83984375 C-1.78523437 19.20207031 -2.93765625 19.56429687 -4.125 19.9375 C-5.26195312 20.29714844 -6.39890625 20.65679687 -7.5703125 21.02734375 C-11 22 -11 22 -17 23 C-17 16.4 -17 9.8 -17 3 C-4.46280992 -0.66942149 -4.46280992 -0.66942149 0 0 Z " fill="#434D50" transform="translate(138,38)"/>
<path d="M0 0 C1.98 0 3.96 0 6 0 C6 54.12 6 108.24 6 164 C-48.12 164 -102.24 164 -158 164 C-158 163.67 -158 163.34 -158 163 C-104.21 163 -50.42 163 5 163 C4.9175 136.8475 4.835 110.695 4.75 83.75 C4.73420898 75.48549805 4.71841797 67.22099609 4.70214844 58.70605469 C4.66893768 51.31215095 4.66893768 51.31215095 4.63043213 43.91827393 C4.61339382 40.61923655 4.60756989 37.32038165 4.60845947 34.02130127 C4.60922904 29.81571112 4.59100853 25.61060947 4.55891085 21.40514612 C4.55037513 19.86011954 4.54856619 18.31503805 4.55417585 16.76999807 C4.56078798 14.68517155 4.5429866 12.60193884 4.51898193 10.51727295 C4.51529476 9.34843945 4.51160759 8.17960594 4.50780869 6.97535324 C3.90029083 3.41578394 2.76262237 2.23624127 0 0 Z " fill="#FEFDF5" transform="translate(158,0)"/>
<path d="M0 0 C2.91128986 1.85854665 5.42922037 3.85844074 7 7 C7.43281664 11.23660902 7.44858706 14.91394711 5.8125 18.875 C2.72146632 22.49897052 0.30830616 23.83348831 -4.4375 24.4375 C-8.66003788 23.91894272 -10.7240245 22.66649168 -14 20 C-16.18085057 16.72872414 -16.24887859 15.72623277 -16.1875 11.9375 C-16.18105469 11.05964844 -16.17460937 10.18179687 -16.16796875 9.27734375 C-16 7 -16 7 -15 5 C-14.34 5 -13.68 5 -13 5 C-13.03480469 5.74765625 -13.06960937 6.4953125 -13.10546875 7.265625 C-13.13253906 8.25046875 -13.15960937 9.2353125 -13.1875 10.25 C-13.22230469 11.22453125 -13.25710937 12.1990625 -13.29296875 13.203125 C-12.95318857 16.44689312 -12.32213796 17.7352632 -10 20 C-8.07736524 20.76172561 -8.07736524 20.76172561 -6 20.875 C-4.9790625 20.99488281 -4.9790625 20.99488281 -3.9375 21.1171875 C-1.66934488 21.1431693 -1.66934488 21.1431693 1 19 C0.67 17.68 0.34 16.36 0 15 C-1.65 15 -3.3 15 -5 15 C-2.21081851 16.10540926 -2.21081851 16.10540926 0 16 C0 16.66 0 17.32 0 18 C-3.3125 18.25 -3.3125 18.25 -7 18 C-10.36289062 14.82393664 -10.46375766 11.72484686 -10.6875 7.25 C-10.75324219 6.07953125 -10.81898437 4.9090625 -10.88671875 3.703125 C-10.92410156 2.81109375 -10.96148438 1.9190625 -11 1 C-6.92660885 -1.28572385 -4.58216139 -1.18504174 0 0 Z " fill="#D9E2E3" transform="translate(39,20)"/>
<path d="M0 0 C0 2.97 0 5.94 0 9 C-1.65625 9.4140625 -3.3125 9.828125 -4.96875 10.2421875 C-6.01546875 10.50386719 -7.0621875 10.76554687 -8.140625 11.03515625 C-10.34895833 11.58723958 -12.55729167 12.13932292 -14.765625 12.69140625 C-15.82265625 12.95566406 -16.8796875 13.21992187 -17.96875 13.4921875 C-18.99871094 13.74967773 -20.02867188 14.00716797 -21.08984375 14.27246094 C-22.05019531 14.51254883 -23.01054688 14.75263672 -24 15 C-25.59375 15.3984375 -27.1875 15.796875 -28.78125 16.1953125 C-29.8434375 16.46085937 -30.905625 16.72640625 -32 17 C-32 13.7 -32 10.4 -32 7 C-27.76659978 5.83325212 -23.53079252 4.67584165 -19.29248047 3.52709961 C-17.85037176 3.13481615 -16.40895808 2.7399684 -14.96826172 2.3425293 C-12.89987775 1.77240694 -10.82918717 1.21148812 -8.7578125 0.65234375 C-6.88826904 0.14175415 -6.88826904 0.14175415 -4.98095703 -0.37915039 C-2 -1 -2 -1 0 0 Z " fill="#384143" transform="translate(106,79)"/>
<path d="M0 0 C0.495 6.93 0.495 6.93 1 14 C0.505 12.02 0.505 12.02 0 10 C-0.6084375 10.2165625 -1.216875 10.433125 -1.84375 10.65625 C-11.48274726 13.71804913 -22.98864452 15.21560077 -32.5 11 C-33.6836643 10.36400127 -34.85911447 9.70988433 -36 9 C-35.67 8.01 -35.34 7.02 -35 6 C-33.35 6 -31.7 6 -30 6 C-29.67 5.34 -29.34 4.68 -29 4 C-26.49888205 3.76222826 -24.06912918 3.63000246 -21.5625 3.5625 C-15.67351403 3.31655171 -10.50826999 2.6320627 -4.91796875 0.62109375 C-3 0 -3 0 0 0 Z " fill="#323B3D" transform="translate(59,81)"/>
<path d="M0 0 C38.61 0 77.22 0 117 0 C117.495 2.475 117.495 2.475 118 5 C114.62022927 6.68988537 111.42104071 6.43645504 107.83333778 5.33453655 C107.03889448 5.06290093 106.24445118 4.79126532 105.42593384 4.51139832 C100.09386699 2.87626482 95.23366384 2.55877081 89.68505859 2.56762695 C88.70824127 2.5574353 87.73142395 2.54724365 86.7250061 2.53674316 C83.53275664 2.50682269 80.34080825 2.49737936 77.1484375 2.48828125 C74.92069518 2.47141904 72.69296229 2.45326674 70.46524048 2.43388367 C64.62924139 2.38654524 58.79328053 2.35663145 52.95715332 2.33044434 C46.99089003 2.30055711 41.02475824 2.2540549 35.05859375 2.20898438 C23.37246485 2.12313514 11.68630875 2.05570829 0 2 C0 1.34 0 0.68 0 0 Z " fill="#EEEFEB" transform="translate(30,0)"/>
<path d="M0 0 C0.66 0 1.32 0 2 0 C3.93703061 5.81109182 3.21715636 12.06636277 2 18 C2.99 18.33 3.98 18.66 5 19 C4.69964844 19.69867188 4.39929688 20.39734375 4.08984375 21.1171875 C3.70957031 22.02726562 3.32929687 22.93734375 2.9375 23.875 C2.36322266 25.23238281 2.36322266 25.23238281 1.77734375 26.6171875 C0.6976002 28.98066862 0.6976002 28.98066862 2 31 C-0.5 32.5 -0.5 32.5 -3 34 C-3.86625 34.556875 -4.7325 35.11375 -5.625 35.6875 C-8 37 -8 37 -11 37 C-10.79375 37.61875 -10.5875 38.2375 -10.375 38.875 C-10.25125 39.57625 -10.1275 40.2775 -10 41 C-10.66 41.66 -11.32 42.32 -12 43 C-13.32 42.34 -14.64 41.68 -16 41 C-16 40.34 -16 39.68 -16 39 C-18.64 39.33 -21.28 39.66 -24 40 C-25.04449911 36.86650268 -24.93423645 36.01031744 -24 33 C-23.01 33 -22.02 33 -21 33 C-19.35273804 32.89549924 -17.70683099 32.76841533 -16.0625 32.625 C-15.20785156 32.55539063 -14.35320312 32.48578125 -13.47265625 32.4140625 C-9.99599841 31.83187335 -7.84978366 31.00553916 -5.55078125 28.28515625 C-1.34131283 20.72935963 -1.30736542 13.34685719 -1.140625 4.90234375 C-1 1 -1 1 0 0 Z " fill="#151B1D" transform="translate(118,87)"/>
<path d="M0 0 C0.33 0 0.66 0 1 0 C1.2238066 5.67397543 1.38639536 11.345342 1.49438477 17.02270508 C1.53942902 18.95024401 1.6006884 20.87747912 1.67895508 22.80395508 C2.31628012 38.90370203 2.31628012 38.90370203 -1.04345703 44.25439453 C-3.2550663 46.41746368 -5.50960791 48.18094998 -8 50 C-8 50.66 -8 51.32 -8 52 C-23.96810342 52.07006716 -39.93615701 52.12297687 -55.90437698 52.15543652 C-63.3186278 52.17090839 -70.73278313 52.19200395 -78.14697266 52.22631836 C-84.60884659 52.25621101 -91.07065138 52.27557267 -97.53259254 52.28226548 C-100.95447585 52.28617801 -104.37616133 52.29537937 -107.79798126 52.31719017 C-111.61706905 52.33888709 -115.43574357 52.34197009 -119.25488281 52.34057617 C-120.39064255 52.351362 -121.52640228 52.36214783 -122.69657898 52.3732605 C-123.73701859 52.36913651 -124.77745819 52.36501251 -125.84942627 52.36076355 C-126.75278339 52.36352893 -127.65614052 52.36629431 -128.5868721 52.36914349 C-131.50693079 51.92245326 -132.84060452 50.98191373 -135 49 C-136.04892238 47.36368108 -137.04906703 45.69514137 -138 44 C-138.98244845 42.65368175 -139.97676564 41.31558703 -141 40 C-138.07909997 41.30936898 -136.24380538 42.75619462 -134 45 C-133.01 45.33 -132.02 45.66 -131 46 C-131 46.66 -131 47.32 -131 48 C-130.360625 48.144375 -129.72125 48.28875 -129.0625 48.4375 C-127 49 -127 49 -126 50 C-122.90265393 50.10605509 -119.82748627 50.14677371 -116.72949219 50.14526367 C-115.75536377 50.14862228 -114.78123535 50.1519809 -113.77758789 50.15544128 C-110.53400417 50.16499304 -107.29047194 50.1668973 -104.046875 50.16796875 C-101.79258198 50.17118127 -99.53828916 50.17454533 -97.28399658 50.17805481 C-92.54251625 50.18405861 -87.80105418 50.18589372 -83.05957031 50.18530273 C-77.01077839 50.18520169 -70.96210539 50.19878796 -64.91334152 50.21607494 C-60.24789911 50.22725388 -55.58248476 50.22922005 -50.91703033 50.22869301 C-48.6893193 50.22986679 -46.4616074 50.23425449 -44.23390961 50.24202538 C-24.83278898 51.49145799 -24.83278898 51.49145799 -7.25 45.5 C-5.00138505 43.22437759 -5.00138505 43.22437759 -4 41 C-3.34 41 -2.68 41 -2 41 C-0.85982839 32.50140996 -0.66899101 23.99699815 -0.4375 15.4375 C-0.39421638 13.93683922 -0.3505993 12.43618803 -0.30664062 10.93554688 C-0.20058203 7.29046701 -0.09903743 3.64527818 0 0 Z " fill="#9D9184" transform="translate(160,111)"/>
<path d="M0 0 C0 2.64 0 5.28 0 8 C-7.42857143 10.14285714 -7.42857143 10.14285714 -11 11 C-11 11.66 -11 12.32 -11 13 C-13.24893954 13.10823773 -15.49937575 13.18569645 -17.75 13.25 C-19.62945312 13.31960937 -19.62945312 13.31960937 -21.546875 13.390625 C-25 13 -25 13 -27.453125 11.171875 C-29 9 -29 9 -29 6 C-29.66 5.34 -30.32 4.68 -31 4 C-27.17172575 2.08586288 -22.25485925 2.62598783 -18.00390625 2.48242188 C-11.891969 2.21382098 -5.99322666 0 0 0 Z " fill="#293335" transform="translate(59,96)"/>
<path d="M0 0 C0.33 0 0.66 0 1 0 C1 1.65 1 3.3 1 5 C6.61 3.35 12.22 1.7 18 0 C18.33 0.66 18.66 1.32 19 2 C18.01 2.66 17.02 3.32 16 4 C15.26656572 7.06556598 15.26656572 7.06556598 15 10 C16.32 10 17.64 10 19 10 C18.8125 12.375 18.8125 12.375 18 15 C12.70290197 17.68693378 6.80291589 18.10724371 1 19 C1 14.71 1 10.42 1 6 C0.01 6.33 -0.98 6.66 -2 7 C-1.34 4.69 -0.68 2.38 0 0 Z " fill="#414A4A" transform="translate(120,56)"/>
<path d="M0 0 C0.33 0 0.66 0 1 0 C2.01027612 5.85553817 2.14806164 11.53953981 2.14526367 17.47412109 C2.14862228 18.5043187 2.1519809 19.5345163 2.15544128 20.59593201 C2.16491022 23.98844623 2.16689229 27.3809109 2.16796875 30.7734375 C2.17118389 33.14083883 2.17454816 35.50823996 2.17805481 37.87564087 C2.18403574 42.83343974 2.18589575 47.79122121 2.18530273 52.74902344 C2.18520111 59.0894951 2.19885809 65.42985478 2.21607494 71.77029991 C2.22721387 76.65860503 2.22922137 81.54688323 2.22869301 86.43519974 C2.22987008 88.77227795 2.2342765 91.10935692 2.24202538 93.44642258 C2.2518644 96.72005735 2.24893181 99.99345087 2.24291992 103.26708984 C2.24853943 104.22426407 2.25415894 105.18143829 2.25994873 106.1676178 C2.23252031 112.06966728 1.47117816 117.27972669 0 123 C-0.66 123 -1.32 123 -2 123 C-2.33 123.99 -2.66 124.98 -3 126 C-5.5625 127.6875 -5.5625 127.6875 -8 129 C-7.1875 126.5625 -7.1875 126.5625 -6 124 C-4.515 123.505 -4.515 123.505 -3 123 C-3 122.01 -3 121.02 -3 120 C-2.34 120 -1.68 120 -1 120 C-0.14914569 112.89791632 0.13941891 105.91609469 0.11352539 98.76708984 C0.11367142 97.69273682 0.11381744 96.61838379 0.1139679 95.51147461 C0.11327662 91.99460767 0.10552128 88.47779508 0.09765625 84.9609375 C0.09578928 82.50900298 0.09436669 80.05706808 0.09336853 77.60513306 C0.08956534 71.17725581 0.07975397 64.74940146 0.06866455 58.3215332 C0.05840302 51.75211903 0.05386078 45.18270114 0.04882812 38.61328125 C0.0381296 25.74217778 0.02127423 12.87109011 0 0 Z M-10 129 C-9.34 129.33 -8.68 129.66 -8 130 C-9 131 -9 131 -11.5625 131.0625 C-12.7690625 131.0315625 -12.7690625 131.0315625 -14 131 C-12.125 129.9375 -12.125 129.9375 -10 129 Z " fill="#93867A" transform="translate(158,29)"/>
<path d="M0 0 C1.9375 0.3125 1.9375 0.3125 4 1 C4.33 1.99 4.66 2.98 5 4 C4.67 4.66 4.34 5.32 4 6 C4.99 5.67 5.98 5.34 7 5 C9.125 9.625 9.125 9.625 8 13 C8.66 13 9.32 13 10 13 C10.33 14.32 10.66 15.64 11 17 C11.99 16.67 12.98 16.34 14 16 C14.33 17.32 14.66 18.64 15 20 C17.97 20.33 20.94 20.66 24 21 C24 21.66 24 22.32 24 23 C56.67 23 89.34 23 123 23 C123 23.33 123 23.66 123 24 C121.8666069 24.01030746 120.73321381 24.02061493 119.56547546 24.03123474 C108.89715042 24.12888661 98.22888476 24.23161289 87.56065655 24.33933926 C82.0756959 24.3945617 76.59072991 24.44798069 71.10571289 24.49731445 C65.81482553 24.54496791 60.52400365 24.59731119 55.23319435 24.65294075 C53.21215249 24.67335983 51.19109266 24.69207366 49.17001915 24.70907402 C46.34464386 24.73312781 43.51939253 24.76318119 40.6940918 24.79467773 C39.85396042 24.8004332 39.01382904 24.80618866 38.14823914 24.81211853 C34.85286585 24.85402202 32.14753164 24.95082279 29 26 C22.27863567 26.8230242 17.58362105 24.45290365 12 21 C6.78568116 16.59679743 1.971294 10.63071617 0 4 C0 2.68 0 1.36 0 0 Z " fill="#151713" transform="translate(6,129)"/>
<path d="M0 0 C1.01685883 0.21377541 1.01685883 0.21377541 2.05426025 0.43186951 C10.80869194 2.09883558 19.36339153 2.2423157 28.234375 2.16015625 C29.7996584 2.15385332 31.36494644 2.14862422 32.93023682 2.14439392 C37.04101029 2.13117949 41.1516312 2.10685486 45.2623291 2.07904053 C52.54462137 2.03062056 59.82696641 1.99732829 67.109375 1.97265625 C67.89769211 1.9696413 68.68600922 1.96662636 69.49821472 1.96352005 C85.68052926 1.9104802 101.8314434 2.35625152 118 3 C114.90791419 5.06139054 114.27535905 5.24978724 110.78279114 5.24723816 C109.49396027 5.25352989 109.49396027 5.25352989 108.17909241 5.25994873 C107.23932053 5.25432922 106.29954865 5.24870972 105.33129883 5.24291992 C104.33909332 5.24481827 103.34688782 5.24671661 102.32461548 5.24867249 C99.03534104 5.25238525 95.74628618 5.24166502 92.45703125 5.23046875 C90.17119879 5.22927663 87.88536584 5.22882386 85.59953308 5.2290802 C80.80192001 5.22751422 76.00438143 5.21921871 71.20678711 5.20581055 C65.06790808 5.18886857 58.92911134 5.18499485 52.79021168 5.18575573 C48.06578287 5.18548318 43.34137193 5.17998749 38.61694908 5.17275429 C36.354409 5.169579 34.09186691 5.16760288 31.82932472 5.16686058 C28.65807309 5.1646822 25.48690695 5.15590432 22.31567383 5.14526367 C21.3860231 5.14571686 20.45637238 5.14617004 19.49855042 5.14663696 C14.24360877 5.12097369 9.20100439 4.76097664 4 4 C4 3.34 4 2.68 4 2 C2.68 1.67 1.36 1.34 0 1 C0 0.67 0 0.34 0 0 Z " fill="#89735E" transform="translate(25,155)"/>
<path d="M0 0 C1.625 1 1.625 1 3 3 C2.65009645 5.8158905 1.84980278 8.2716858 1 11 C1.33 11 1.66 11 2 11 C2.08886184 14.19902639 1.91058531 16.92677456 1 20 C-1 19 -1 19 -1.6875 17.125 C-2 15 -2 15 -1 12 C-1.79664063 12.13277344 -2.59328125 12.26554687 -3.4140625 12.40234375 C-4.47367188 12.57894531 -5.53328125 12.75554687 -6.625 12.9375 C-7.66914063 13.11152344 -8.71328125 13.28554687 -9.7890625 13.46484375 C-12.859375 13.9765625 -15.9296875 14.48828125 -19 15 C-19 12.03 -19 9.06 -19 6 C-13.60962125 4.11764552 -8.35157151 2.53833186 -2.75 1.4296875 C-0.98346216 1.15616145 -0.98346216 1.15616145 0 0 Z " fill="#30383D" transform="translate(140,84)"/>
<path d="M0 0 C1 3 1 3 0.375 5.625 C-1 8 -1 8 -3.625 8.8125 C-4.800625 8.9053125 -4.800625 8.9053125 -6 9 C-6 9.66 -6 10.32 -6 11 C-7.98 11.33 -9.96 11.66 -12 12 C-12 12.66 -12 13.32 -12 14 C-26.07345741 14.20103318 -40.14705119 14.38407802 -54.2210083 14.54658794 C-60.75636551 14.62257272 -67.29154676 14.70426424 -73.82666016 14.79907227 C-80.13537617 14.89038464 -86.44411185 14.96660895 -92.75314331 15.03244972 C-95.15809917 15.06018485 -97.56299909 15.09332284 -99.96780396 15.13199425 C-103.34052526 15.18530063 -106.71293558 15.21925665 -110.0859375 15.2487793 C-111.57163994 15.27898415 -111.57163994 15.27898415 -113.08735657 15.30979919 C-119.09219812 15.3375555 -123.55084247 14.59443517 -129 12 C-129.33 11.34 -129.66 10.68 -130 10 C-128.82553818 10.48650276 -128.82553818 10.48650276 -127.62734985 10.98283386 C-122.99009221 12.28319408 -118.75433944 12.28739528 -113.96240234 12.2746582 C-112.46844437 12.2823246 -112.46844437 12.2823246 -110.94430542 12.29014587 C-107.65812127 12.30402217 -104.37214744 12.30308585 -101.0859375 12.30078125 C-98.79155398 12.30467064 -96.49717118 12.30900581 -94.20278931 12.31376648 C-89.39281889 12.32122551 -84.58292186 12.32094069 -79.77294922 12.31567383 C-73.63333244 12.30989455 -67.49401885 12.32677462 -61.35445213 12.3500185 C-56.61355862 12.36481375 -51.87273701 12.36561941 -47.13182449 12.36250877 C-44.86979194 12.36301957 -42.60775511 12.3682115 -40.34574509 12.37832069 C-22.15529213 13.51296066 -22.15529213 13.51296066 -5.9715271 7.16743469 C-4.35667092 5.36064628 -4.35667092 5.36064628 -3.0859375 3.42578125 C-2.72757812 2.95527344 -2.36921875 2.48476562 -2 2 C-1.34 2 -0.68 2 0 2 C0 1.34 0 0.68 0 0 Z " fill="#5F4E40" transform="translate(152,142)"/>
<path d="M0 0 C0.165 0.598125 0.33 1.19625 0.5 1.8125 C2.81808338 5.19303826 6.19444322 5.99225674 10 7 C12.6765227 7.47179383 15.28832155 7.75788585 18 8 C17.67 10.97 17.34 13.94 17 17 C7.93978775 17.63333523 7.93978775 17.63333523 4.125 15.0625 C3.42375 14.381875 2.7225 13.70125 2 13 C0.68 12.67 -0.64 12.34 -2 12 C-2 8.37 -2 4.74 -2 1 C-1.34 0.67 -0.68 0.34 0 0 Z " fill="#252F31" transform="translate(24,106)"/>
<path d="M0 0 C0.825 0.32484375 1.65 0.6496875 2.5 0.984375 C6.4047971 2.11746344 9.97510738 2.29539353 14 2.25 C14.68578125 2.25773437 15.3715625 2.26546875 16.078125 2.2734375 C20.44788872 2.25675901 23.92257103 1.5097186 28 0 C30.875 -0.125 30.875 -0.125 33 0 C33 1.65 33 3.3 33 5 C23.71251891 8.30571361 11.97248401 10.42717387 2.578125 6.609375 C0 5 0 5 -0.9375 2.875 C-0.958125 2.25625 -0.97875 1.6375 -1 1 C-0.67 0.67 -0.34 0.34 0 0 Z " fill="#E4E6E0" transform="translate(26,91)"/>
<path d="M0 0 C-0.33 0.99 -0.66 1.98 -1 3 C-3.67266314 3.98404246 -6.2262042 4.76689222 -8.97265625 5.48046875 C-10.16912025 5.80704216 -10.16912025 5.80704216 -11.38975525 6.14021301 C-13.94429231 6.83453879 -16.50314871 7.51115995 -19.0625 8.1875 C-20.79263019 8.65444268 -22.52245265 9.12252717 -24.25195312 9.59179688 C-28.49784148 10.74115618 -32.74768621 11.87465677 -37 13 C-37 12.01 -37 11.02 -37 10 C-36.34 10 -35.68 10 -35 10 C-35.33 9.01 -35.66 8.02 -36 7 C-32.6888043 6.03712186 -29.37581696 5.08055083 -26.0625 4.125 C-25.13630859 3.85558594 -24.21011719 3.58617187 -23.25585938 3.30859375 C-6.21647135 -1.59396701 -6.21647135 -1.59396701 0 0 Z " fill="#283334" transform="translate(103,37)"/>
<path d="M0 0 C0 1.65 0 3.3 0 5 C-9.43334601 8.40817662 -19.29765097 11.42510366 -29.125 7.75 C-31.98640915 6.00827269 -33.02058159 5.15590375 -34 2 C-30.28006658 0.76002219 -29.52433205 1.56856308 -26 3 C-18.73484035 3.80145744 -12.20718934 2.8542627 -5.27734375 0.65625 C-3 0 -3 0 0 0 Z " fill="#E6E7E2" transform="translate(59,76)"/>
<path d="M0 0 C0 1.65 0 3.3 0 5 C-15.09070662 9.79039997 -15.09070662 9.79039997 -22.1875 11.8125 C-23.41533203 12.16248047 -23.41533203 12.16248047 -24.66796875 12.51953125 C-27.16967846 13.03495888 -29.45269663 13.08596583 -32 13 C-32 11.68 -32 10.36 -32 9 C-25.27560697 6.34875253 -18.45606453 4.19370883 -11.5 2.25 C-10.71061035 2.02739502 -9.9212207 1.80479004 -9.10791016 1.57543945 C-5.99359561 0.7194563 -3.24521827 0 0 0 Z " fill="#E9E8DF" transform="translate(106,73)"/>
<path d="M0 0 C0 2.97 0 5.94 0 9 C-7.4654395 11.77476512 -14.06714481 12.36801906 -22 12 C-19.09840942 5.71103218 -14.32483143 3.41493564 -8 1 C-5.01580301 0.06210952 -3.26725359 0 0 0 Z " fill="#3C4748" transform="translate(59,67)"/>
<path d="M0 0 C0 1.65 0 3.3 0 5 C-4.39523925 6.1481204 -8.79129144 7.29309726 -13.1875 8.4375 C-15.05631836 8.92573242 -15.05631836 8.92573242 -16.96289062 9.42382812 C-18.16494141 9.73642578 -19.36699219 10.04902344 -20.60546875 10.37109375 C-21.71043701 10.65911865 -22.81540527 10.94714355 -23.95385742 11.24389648 C-26.62686993 11.90738288 -29.29463468 12.48710324 -32 13 C-32 11.35 -32 9.7 -32 8 C-16.90929338 3.20960003 -16.90929338 3.20960003 -9.8125 1.1875 C-8.99394531 0.95417969 -8.17539063 0.72085938 -7.33203125 0.48046875 C-4.83032154 -0.03495888 -2.54730337 -0.08596583 0 0 Z " fill="#D8DCD6" transform="translate(106,88)"/>
<path d="M0 0 C0 1.65 0 3.3 0 5 C-9.16350711 7.86679552 -20.16021259 10.461045 -29.5078125 7.09765625 C-31.4375 6 -31.4375 6 -34 4 C-34 3.01 -34 2.02 -34 1 C-30.53058454 1.45822468 -27.32604951 1.89131683 -24 3 C-17.59809266 3.47421536 -12.06018869 2.22743348 -5.85546875 0.65625 C-3 0 -3 0 0 0 Z " fill="#F1F5F3" transform="translate(59,62)"/>
<path d="M0 0 C-0.99 1.485 -0.99 1.485 -2 3 C-2.99 3 -3.98 3 -5 3 C-5.28875 3.598125 -5.5775 4.19625 -5.875 4.8125 C-8.4224924 9.76595745 -8.4224924 9.76595745 -11.96875 11.203125 C-13.1340625 11.54859375 -14.299375 11.8940625 -15.5 12.25 C-17.24796875 12.78367187 -17.24796875 12.78367187 -19.03125 13.328125 C-22 14 -22 14 -24 13 C-23.34 11.35 -22.68 9.7 -22 8 C-21.34 8 -20.68 8 -20 8 C-20.66 6.68 -21.32 5.36 -22 4 C-19.08644159 3.13372595 -16.16995672 2.28168994 -13.25 1.4375 C-12.425 1.19064453 -11.6 0.94378906 -10.75 0.68945312 C-9.95078125 0.46064453 -9.1515625 0.23183594 -8.328125 -0.00390625 C-7.5949707 -0.21861572 -6.86181641 -0.4333252 -6.10644531 -0.65454102 C-3.76130184 -1.03914672 -2.24174192 -0.72878764 0 0 Z " fill="#293339" transform="translate(98,96)"/>
<path d="M0 0 C0.33 0.66 0.66 1.32 1 2 C2.32 1.67 3.64 1.34 5 1 C4.814375 2.155 4.62875 3.31 4.4375 4.5 C3.73975572 10.11185753 3.7789557 15.16843356 7 20 C10.56769552 20.73606499 10.56769552 20.73606499 14 21 C14 20.34 14 19.68 14 19 C12.35 19.33 10.7 19.66 9 20 C8.34 18.68 7.68 17.36 7 16 C13.75 16.75 13.75 16.75 16 19 C15.8125 21 15.8125 21 15 23 C11.60292022 25.26471985 9.90968187 25.24026093 5.94140625 24.58984375 C4 24 4 24 1.5 22 C-0.51945285 17.9610943 -0.53240148 14.44249756 0 10 C0.33 9.34 0.66 8.68 1 8 C0.34 8 -0.32 8 -1 8 C-1.33 5.69 -1.66 3.38 -2 1 C-1.34 0.67 -0.68 0.34 0 0 Z " fill="#3E4749" transform="translate(25,17)"/>
<path d="M0 0 C0.66 0 1.32 0 2 0 C4.58411908 7.59084981 5.10285883 14.4367816 2 22 C2.66 22 3.32 22 4 22 C4 29.26 4 36.52 4 44 C2.68 44 1.36 44 0 44 C0 29.48 0 14.96 0 0 Z " fill="#1F2729" transform="translate(117,40)"/>
<path d="M0 0 C0.89203125 0.00902344 1.7840625 0.01804688 2.703125 0.02734375 C3.37859375 0.03894531 4.0540625 0.05054688 4.75 0.0625 C2.20215202 1.43314273 0.47758854 2.10523121 -2.4375 2.5625 C-3.365625 2.7275 -4.29375 2.8925 -5.25 3.0625 C-5.58 3.7225 -5.91 4.3825 -6.25 5.0625 C-5.26 5.0625 -4.27 5.0625 -3.25 5.0625 C-3.25 6.0525 -3.25 7.0425 -3.25 8.0625 C-6.88 7.0725 -10.51 6.0825 -14.25 5.0625 C-14.58 6.3825 -14.91 7.7025 -15.25 9.0625 C-16.24 9.7225 -17.23 10.3825 -18.25 11.0625 C-18.25 12.0525 -18.25 13.0425 -18.25 14.0625 C-18.91 14.0625 -19.57 14.0625 -20.25 14.0625 C-20.58 17.0325 -20.91 20.0025 -21.25 23.0625 C-25.25 24.0625 -25.25 24.0625 -28.25 23.0625 C-26.37723236 14.8106176 -22.25331697 8.34677497 -15.08984375 3.64453125 C-10.05164256 1.03596727 -5.68963602 -0.07486363 0 0 Z " fill="#5A6363" transform="translate(34.25,2.9375)"/>
<path d="M0 0 C0 2 0 4 0 6 C0.33 6.33 0.66 6.66 1 7 C1.36162029 8.32594105 1.69728039 9.65938457 2 11 C1.34 11 0.68 11 0 11 C0.33 11.99 0.66 12.98 1 14 C2.65 13.67 4.3 13.34 6 13 C6 13.66 6 14.32 6 15 C7.98 15 9.96 15 12 15 C8.29860724 18.86963788 8.29860724 18.86963788 4.9765625 19.203125 C1.52222443 19.27198224 -1.26692025 19.2932319 -4.5 18 C-6.80075323 14.93232903 -7.189977 11.73377875 -7 8 C-5.41169583 4.23822697 -3.39126887 2.22186581 0 0 Z " fill="#E1DFD4" transform="translate(100,101)"/>
<path d="M0 0 C0 9.9 0 19.8 0 30 C-9 33.375 -9 33.375 -13 32 C-9.83390538 30.12379578 -7.64167599 29.90337178 -4 30 C-4.08378906 29.12859375 -4.16757813 28.2571875 -4.25390625 27.359375 C-4.86140556 20.25394006 -5.01228075 13.51994274 -4.25390625 6.42578125 C-3.94794941 3.90922218 -3.94794941 3.90922218 -4 1 C-2 0 -2 0 0 0 Z " fill="#1F2827" transform="translate(110,63)"/>
<path d="M0 0 C0.33 0 0.66 0 1 0 C1 9.24 1 18.48 1 28 C-0.98 28.99 -0.98 28.99 -3 30 C-4 29 -4 29 -4.11352539 26.59155273 C-4.10828857 25.54942627 -4.10305176 24.5072998 -4.09765625 23.43359375 C-4.09443359 22.30888672 -4.09121094 21.18417969 -4.08789062 20.02539062 C-4.07951172 18.84138672 -4.07113281 17.65738281 -4.0625 16.4375 C-4.05798828 15.24962891 -4.05347656 14.06175781 -4.04882812 12.83789062 C-4.03699675 9.89187774 -4.02051287 6.94596319 -4 4 C-3.01 3.67 -2.02 3.34 -1 3 C-0.67 2.01 -0.34 1.02 0 0 Z " fill="#EEEEE7" transform="translate(68,73)"/>
<path d="M0 0 C0.80566406 0.04833984 1.61132812 0.09667969 2.44140625 0.14648438 C3.28316406 0.20255859 4.12492187 0.25863281 4.9921875 0.31640625 C6.26642578 0.3947168 6.26642578 0.3947168 7.56640625 0.47460938 C9.66697874 0.60442003 11.76712941 0.74102365 13.8671875 0.87890625 C12.8771875 2.19890625 11.8871875 3.51890625 10.8671875 4.87890625 C11.5271875 6.19890625 12.1871875 7.51890625 12.8671875 8.87890625 C11.8771875 8.54890625 10.8871875 8.21890625 9.8671875 7.87890625 C9.5371875 8.53890625 9.2071875 9.19890625 8.8671875 9.87890625 C0.74996262 10.50330816 0.74996262 10.50330816 -2.6953125 8.06640625 C-4.1328125 5.87890625 -4.1328125 5.87890625 -4.1328125 2.87890625 C-4.7928125 2.21890625 -5.4528125 1.55890625 -6.1328125 0.87890625 C-3.77622853 -0.29938574 -2.60708014 -0.16523747 0 0 Z " fill="#283232" transform="translate(34.1328125,99.12109375)"/>
<path d="M0 0 C7.76785714 -0.66964286 7.76785714 -0.66964286 11.5 2 C13.99975486 4.99970583 14.39301879 5.50101135 14.5 9.125 C14 13 14 13 12 16 C11.608125 15.175 11.21625 14.35 10.8125 13.5 C10.214375 12.675 9.61625 11.85 9 11 C6.37305578 10.58219121 6.37305578 10.58219121 4 11 C3.34 9.68 2.68 8.36 2 7 C3.32 7.33 4.64 7.66 6 8 C5.67 7.34 5.34 6.68 5 6 C2.47266765 5.34444881 2.47266765 5.34444881 0 5 C0 3.35 0 1.7 0 0 Z " fill="#484F53" transform="translate(30,22)"/>
<path d="M0 0 C6.85217353 3.28904329 10.93617004 7.40704023 14.07421875 14.390625 C16.19295795 20.4879921 16.11477333 25.68742816 15 32 C13.25434889 28.78360346 12.795563 26.67986596 13 23 C12.34 22.67 11.68 22.34 11 22 C11.020625 21.236875 11.04125 20.47375 11.0625 19.6875 C11.12942841 16.89814214 11.12942841 16.89814214 10 14 C9.34 14 8.68 14 8 14 C6.66666667 12.66666667 5.33333333 11.33333333 4 10 C4.33 9.34 4.66 8.68 5 8 C3.35 7.67 1.7 7.34 0 7 C0.33 5.35 0.66 3.7 1 2 C0.34 1.67 -0.32 1.34 -1 1 C-0.67 0.67 -0.34 0.34 0 0 Z " fill="#4F5555" transform="translate(142,7)"/>
<path d="M0 0 C3.90168516 1.47994954 4.90715049 3.51191749 7 7 C8.32 7.66 9.64 8.32 11 9 C11 32.76 11 56.52 11 81 C10.67 81 10.34 81 10 81 C9.99413376 80.27496277 9.98826752 79.54992554 9.98222351 78.80291748 C9.92395456 71.91930475 9.851687 65.03596061 9.76428509 58.15266037 C9.71984476 54.61514378 9.68053362 51.07773541 9.65356445 47.54003906 C9.62221357 43.45870159 9.56743915 39.37795311 9.51171875 35.296875 C9.50532883 34.04638367 9.4989389 32.79589233 9.49235535 31.50750732 C9.5935666 18.6439745 9.5935666 18.6439745 4.5019989 7.36834717 C3.75850945 6.69101532 3.75850945 6.69101532 3 6 C1.95377125 4.02379014 0.94560065 2.0262871 0 0 Z " fill="#AAA198" transform="translate(152,16)"/>
<path d="M0 0 C-0.33 1.65 -0.66 3.3 -1 5 C-17.28753976 10.32614439 -17.28753976 10.32614439 -26 9 C-26.99 8.34 -27.98 7.68 -29 7 C-25.19221303 5.99999049 -21.38361027 5.00315764 -17.57421875 4.00927734 C-15.64018311 3.50396693 -13.70680713 2.99613392 -11.7734375 2.48828125 C-10.56171875 2.17246094 -9.35 1.85664062 -8.1015625 1.53125 C-6.98088379 1.23798828 -5.86020508 0.94472656 -4.70556641 0.64257812 C-2 0 -2 0 0 0 Z " fill="#212C2D" transform="translate(107,53)"/>
<path d="M0 0 C0.33 0.66 0.66 1.32 1 2 C1.66 2 2.32 2 3 2 C3.82200425 8.24723226 0.92551394 12.71317837 -2 18 C-2.66 18 -3.32 18 -4 18 C-4.2475 18.5775 -4.495 19.155 -4.75 19.75 C-6.16683317 22.3002997 -7.87627537 24.01785701 -10 26 C-10.66 25.67 -11.32 25.34 -12 25 C-11.67 24.34 -11.34 23.68 -11 23 C-11.66 23 -12.32 23 -13 23 C-12.67 21.35 -12.34 19.7 -12 18 C-11.34 18 -10.68 18 -10 18 C-10 18.66 -10 19.32 -10 20 C-9.34 20 -8.68 20 -8 20 C-7.938125 19.443125 -7.87625 18.88625 -7.8125 18.3125 C-7 16 -7 16 -4.375 13.5 C-3.199375 12.2625 -3.199375 12.2625 -2 11 C-2.3574765 9.06874034 -2.3574765 9.06874034 -3 7 C-2.20582042 4.53751028 -1.12540802 2.34084869 0 0 Z " fill="#1F211D" transform="translate(154,126)"/>
<path d="M0 0 C0 0.66 0 1.32 0 2 C1.65 2 3.3 2 5 2 C5.33 3.32 5.66 4.64 6 6 C3.87607494 6.6700834 1.75082476 7.33596797 -0.375 8 C-1.55835937 8.37125 -2.74171875 8.7425 -3.9609375 9.125 C-7 10 -7 10 -9 10 C-9 6.7 -9 3.4 -9 0 C-5.62182575 -0.84454356 -3.32534757 -1.10844919 0 0 Z " fill="#363E3E" transform="translate(83,86)"/>
<path d="M0 0 C0.33 0 0.66 0 1 0 C1 7.92 1 15.84 1 24 C-0.65 24.33 -2.3 24.66 -4 25 C-5.25 18.375 -5.25 18.375 -3 15 C-3.33 14.34 -3.66 13.68 -4 13 C-4.13415472 10.3276379 -4.04318541 7.67749512 -4 5 C-3.01 4.67 -2.02 4.34 -1 4 C-0.26676204 1.98491642 -0.26676204 1.98491642 0 0 Z " fill="#F8FCFB" transform="translate(115,42)"/>
<path d="M0 0 C-1.35720559 4.44176375 -2.99386169 6.61336441 -7 9 C-10.79153067 10.15424827 -14.28265128 10.8902175 -17.9140625 9.0078125 C-19.5625 7.6875 -19.5625 7.6875 -22 5 C-22 4.34 -22 3.68 -22 3 C-19.03 3.495 -19.03 3.495 -16 4 C-16 3.01 -16 2.02 -16 1 C-15.34 1 -14.68 1 -14 1 C-13.71125 1.639375 -13.4225 2.27875 -13.125 2.9375 C-12.17176549 5.15206079 -12.17176549 5.15206079 -10 6 C-9.01 5.67 -8.02 5.34 -7 5 C-7.33 4.34 -7.66 3.68 -8 3 C-7.01 3 -6.02 3 -5 3 C-5 2.34 -5 1.68 -5 1 C-2 0 -2 0 0 0 Z " fill="#D8D6CA" transform="translate(68,120)"/>
<path d="M0 0 C0.33 0 0.66 0 1 0 C1 6.27 1 12.54 1 19 C-2.63 19 -6.26 19 -10 19 C-10 16 -10 16 -8.3203125 14.23828125 C-7.59585938 13.60277344 -6.87140625 12.96726563 -6.125 12.3125 C-1.97790655 8.3632361 -0.80222836 5.61559853 0 0 Z " fill="#AEA59B" transform="translate(162,144)"/>
<path d="M0 0 C1.81997251 0.48074745 3.63951907 0.96315815 5.45703125 1.453125 C10.23967208 2.48164991 15.12634534 2.6913352 20 3 C18.76171875 5.46875 18.76171875 5.46875 17 8 C11.31786331 9.70352027 5.08600952 7.54300476 0 5 C-0.78125 2.953125 -0.78125 2.953125 -1 1 C-0.67 0.67 -0.34 0.34 0 0 Z " fill="#D9D8D2" transform="translate(26,106)"/>
<path d="M0 0 C-0.33 0.99 -0.66 1.98 -1 3 C-1.99 3 -2.98 3 -4 3 C-4.33 3.66 -4.66 4.32 -5 5 C-5 4.34 -5 3.68 -5 3 C-5.66 3 -6.32 3 -7 3 C-7.33 5.64 -7.66 8.28 -8 11 C-7.34 11.33 -6.68 11.66 -6 12 C-8.12392506 12.6700834 -10.24917524 13.33596797 -12.375 14 C-13.55835937 14.37125 -14.74171875 14.7425 -15.9609375 15.125 C-19 16 -19 16 -21 16 C-21 14.02 -21 12.04 -21 10 C-18.69 10 -16.38 10 -14 10 C-14 9.34 -14 8.68 -14 8 C-12.68 7.34 -11.36 6.68 -10 6 C-11.32 5.01 -12.64 4.02 -14 3 C-12.0424015 2.49713066 -10.08389623 1.9977901 -8.125 1.5 C-7.03445312 1.2215625 -5.94390625 0.943125 -4.8203125 0.65625 C-2 0 -2 0 0 0 Z " fill="#343B3A" transform="translate(95,66)"/>
<path d="M0 0 C0 1.32 0 2.64 0 4 C-11.52164009 8.40774487 -11.52164009 8.40774487 -17 9 C-17 7.02 -17 5.04 -17 3 C-5.47835991 -0.44419134 -5.47835991 -0.44419134 0 0 Z " fill="#EFF3F3" transform="translate(138,38)"/>
<path d="M0 0 C0.33 1.32 0.66 2.64 1 4 C-1.06152389 4.64894237 -3.12426258 5.2940264 -5.1875 5.9375 C-6.33605469 6.29714844 -7.48460937 6.65679687 -8.66796875 7.02734375 C-11.44353006 7.83756036 -14.15687548 8.49134307 -17 9 C-17 7.35 -17 5.7 -17 4 C-15.10751181 3.32389577 -13.2108398 2.65949561 -11.3125 2 C-10.25675781 1.62875 -9.20101562 1.2575 -8.11328125 0.875 C-5.21637944 0.0608143 -2.98299377 -0.17709796 0 0 Z " fill="#DDE0DB" transform="translate(138,81)"/>
<path d="M0 0 C0 1.32 0 2.64 0 4 C-3.7522584 5.65684137 -7.26353061 6.50208163 -11.3125 7.125 C-12.38113281 7.29257813 -13.44976562 7.46015625 -14.55078125 7.6328125 C-15.35902344 7.75398438 -16.16726562 7.87515625 -17 8 C-17 6.35 -17 4.7 -17 3 C-11.17745757 1.03181664 -6.16618181 -0.40214229 0 0 Z " fill="#E9EBE6" transform="translate(138,67)"/>
<path d="M0 0 C0.33 0 0.66 0 1 0 C1.31727165 7.79078167 -0.55522332 15.84752481 -5.375 22.0625 C-6.24125 22.701875 -7.1075 23.34125 -8 24 C-8.928125 24.763125 -9.85625 25.52625 -10.8125 26.3125 C-14.92954466 28.49211188 -17.40107255 28.31716741 -22 28 C-19 26 -19 26 -17 26 C-17 25.34 -17 24.68 -17 24 C-15.02 23.67 -13.04 23.34 -11 23 C-11 22.34 -11 21.68 -11 21 C-10.21625 20.855625 -9.4325 20.71125 -8.625 20.5625 C-5.89960524 19.31797931 -5.89960524 19.31797931 -5.36328125 17.21484375 C-5.06809584 15.67933799 -4.79343386 14.13979926 -4.53515625 12.59765625 C-3.62557429 8.18253215 -1.7752669 4.12792644 0 0 Z " fill="#7F6755" transform="translate(157,130)"/>
<path d="M0 0 C-0.33 1.32 -0.66 2.64 -1 4 C-3.26949102 4.67155349 -5.5403961 5.3373963 -7.8125 6 C-9.70935547 6.556875 -9.70935547 6.556875 -11.64453125 7.125 C-15 8 -15 8 -18 8 C-18 6.35 -18 4.7 -18 3 C-11.79485526 0.86380263 -6.57315478 -0.36517527 0 0 Z " fill="#DBDED6" transform="translate(139,96)"/>
<path d="M0 0 C-0.33 1.32 -0.66 2.64 -1 4 C-6.61 5.32 -12.22 6.64 -18 8 C-18 6.35 -18 4.7 -18 3 C-15.94237091 2.29805625 -13.87863969 1.61398303 -11.8125 0.9375 C-10.66394531 0.55464844 -9.51539063 0.17179687 -8.33203125 -0.22265625 C-5.02545492 -0.99406151 -3.20917686 -0.96093996 0 0 Z " fill="#EDEFEE" transform="translate(139,53)"/>
<path d="M0 0 C5.28 0.66 10.56 1.32 16 2 C16.33 3.65 16.66 5.3 17 7 C5.99638657 7.58714933 5.99638657 7.58714933 1 4 C0.67 2.68 0.34 1.36 0 0 Z " fill="#C7C8BF" transform="translate(25,121)"/>
<path d="M0 0 C3.58313347 0.28103008 4.47305116 1.06092835 7.1875 3.25 C9.83684822 3.96433121 9.83684822 3.96433121 12.1875 4.25 C11.8575 4.91 11.5275 5.57 11.1875 6.25 C8.8775 5.92 6.5675 5.59 4.1875 5.25 C3.98125 5.889375 3.775 6.52875 3.5625 7.1875 C2.1875 9.25 2.1875 9.25 -0.9375 10 C-2.360625 10.12375 -2.360625 10.12375 -3.8125 10.25 C-3.83939216 8.77093108 -3.85884621 7.29172517 -3.875 5.8125 C-3.88660156 4.98878906 -3.89820312 4.16507812 -3.91015625 3.31640625 C-3.75780153 0.0925804 -3.25791527 0.28959247 0 0 Z " fill="#2E3636" transform="translate(124.8125,88.75)"/>
<path d="M0 0 C3.3 0 6.6 0 10 0 C10 0.99 10 1.98 10 3 C8.02 3.99 6.04 4.98 4 6 C4 6.66 4 7.32 4 8 C5.65 8 7.3 8 9 8 C9.33 8.66 9.66 9.32 10 10 C6.04 10 2.08 10 -2 10 C-2.33 8.02 -2.66 6.04 -3 4 C-2.01 4 -1.02 4 0 4 C0 2.68 0 1.36 0 0 Z " fill="#464F51" transform="translate(35,70)"/>
<path d="M0 0 C0.33 4.62 0.66 9.24 1 14 C0.67 12.68 0.34 11.36 0 10 C-0.94875 9.9175 -1.8975 9.835 -2.875 9.75 C-3.90625 9.5025 -4.9375 9.255 -6 9 C-6.69937532 7.68352881 -7.36729133 6.34977849 -8 5 C-10.55519921 4.18828772 -10.55519921 4.18828772 -13 4 C-8.93662608 1.29108405 -4.89951609 0 0 0 Z " fill="#394246" transform="translate(59,81)"/>
<path d="M0 0 C-0.33 1.98 -0.66 3.96 -1 6 C-7.93 7.485 -7.93 7.485 -15 9 C-15 7.35 -15 5.7 -15 4 C-13.06441401 3.32779649 -11.12645628 2.66241923 -9.1875 2 C-8.10855469 1.62875 -7.02960938 1.2575 -5.91796875 0.875 C-3 0 -3 0 0 0 Z " fill="#DCDCD2" transform="translate(89,106)"/>
<path d="M0 0 C0.33 1.65 0.66 3.3 1 5 C-4.28 6.32 -9.56 7.64 -15 9 C-15 7.35 -15 5.7 -15 4 C-13.06441401 3.32779649 -11.12645628 2.66241923 -9.1875 2 C-8.10855469 1.62875 -7.02960938 1.2575 -5.91796875 0.875 C-3 0 -3 0 0 0 Z " fill="#E7E5DC" transform="translate(89,92)"/>
<path d="M0 0 C0.5775 0.20625 1.155 0.4125 1.75 0.625 C1.09 0.625 0.43 0.625 -0.25 0.625 C-0.25 1.285 -0.25 1.945 -0.25 2.625 C-1.24 3.12 -1.24 3.12 -2.25 3.625 C-1.92 4.945 -1.59 6.265 -1.25 7.625 C-0.26 7.295 0.73 6.965 1.75 6.625 C1.75 7.285 1.75 7.945 1.75 8.625 C2.41 8.955 3.07 9.285 3.75 9.625 C3.09 9.625 2.43 9.625 1.75 9.625 C1.75 10.285 1.75 10.945 1.75 11.625 C-1.15600261 12.88164978 -3.04604584 13.625 -6.25 13.625 C-6.25 9.665 -6.25 5.705 -6.25 1.625 C-2.25 -0.375 -2.25 -0.375 0 0 Z " fill="#394142" transform="translate(75.25,54.375)"/>
<path d="M0 0 C1.9375 0.3125 1.9375 0.3125 4 1 C4.33 1.99 4.66 2.98 5 4 C4.67 4.66 4.34 5.32 4 6 C4.99 5.67 5.98 5.34 7 5 C9.125 9.625 9.125 9.625 8 13 C8.66 13 9.32 13 10 13 C10.33 14.32 10.66 15.64 11 17 C10.01 17.33 9.02 17.66 8 18 C7.03576974 16.60823368 6.07888398 15.2113777 5.125 13.8125 C4.59132813 13.03519531 4.05765625 12.25789062 3.5078125 11.45703125 C1.04477113 7.44342238 0 4.75384082 0 0 Z " fill="#252B2C" transform="translate(6,129)"/>
<path d="M0 0 C0 1.65 0 3.3 0 5 C-1.62171239 5.38897161 -3.24754925 5.76078298 -4.875 6.125 C-5.77992187 6.33382812 -6.68484375 6.54265625 -7.6171875 6.7578125 C-8.40351562 6.83773437 -9.18984375 6.91765625 -10 7 C-10.66 6.34 -11.32 5.68 -12 5 C-14.89223503 4.53603307 -14.89223503 4.53603307 -18.125 4.375 C-19.76855469 4.26285156 -19.76855469 4.26285156 -21.4453125 4.1484375 C-22.28835937 4.09945312 -23.13140625 4.05046875 -24 4 C-24 3.67 -24 3.34 -24 3 C-23.13117187 2.95101562 -22.26234375 2.90203125 -21.3671875 2.8515625 C-20.21476562 2.77679688 -19.06234375 2.70203125 -17.875 2.625 C-16.16957031 2.52058594 -16.16957031 2.52058594 -14.4296875 2.4140625 C-9.35704973 1.80164837 -5.17216296 -0.30424488 0 0 Z " fill="#CED2CA" transform="translate(59,91)"/>
<path d="M0 0 C0.66 0.66 1.32 1.32 2 2 C4.60280568 1.67958603 4.60280568 1.67958603 7 1 C7 1.66 7 2.32 7 3 C8.98 3 10.96 3 13 3 C9.93587358 6.2034049 8.07075511 7.17218547 3.625 7.3125 C0.12954466 7.29561374 -0.70471294 7.23046795 -3.5625 5 C-4.2740625 4.01 -4.2740625 4.01 -5 3 C-3.35 2.01 -1.7 1.02 0 0 Z " fill="#DBD9CE" transform="translate(99,113)"/>
<path d="M0 0 C0 3.96 0 7.92 0 12 C-1.65 12.33 -3.3 12.66 -5 13 C-4.95875 12.236875 -4.9175 11.47375 -4.875 10.6875 C-4.77919176 7.77281584 -4.77919176 7.77281584 -7 5 C-6.67 4.67 -6.34 4.34 -6 4 C-6.66 3.67 -7.32 3.34 -8 3 C-8 2.34 -8 1.68 -8 1 C-5.23735711 0.40267181 -2.83967231 0 0 0 Z " fill="#293334" transform="translate(111,45)"/>
<path d="M0 0 C2 1.5 2 1.5 3 3 C2.67 3.99 2.34 4.98 2 6 C2 5.34 2 4.68 2 4 C1.33613281 4.13277344 0.67226562 4.26554687 -0.01171875 4.40234375 C-4.34114583 5.26822917 -8.67057292 6.13411458 -13 7 C-13.33 5.35 -13.66 3.7 -14 2 C-9.05798092 0.02319237 -5.24850659 -0.43020546 0 0 Z " fill="#263134" transform="translate(118,32)"/>
<path d="M0 0 C0.99 0 1.98 0 3 0 C3.25 7.625 3.25 7.625 1 11 C-2 12 -2 12 -5 11 C-4.54917531 9.53932801 -4.08906463 8.08151968 -3.625 6.625 C-3.36976562 5.81289063 -3.11453125 5.00078125 -2.8515625 4.1640625 C-2 2 -2 2 0 0 Z " fill="#4F595B" transform="translate(11,15)"/>
<path d="M0 0 C0.66 0.33 1.32 0.66 2 1 C2.25 6.625 2.25 6.625 0 10 C-0.33 10.99 -0.66 11.98 -1 13 C-1.99 13.495 -1.99 13.495 -3 14 C-3.5878125 13.2265625 -3.5878125 13.2265625 -4.1875 12.4375 C-5.0846875 11.7259375 -5.0846875 11.7259375 -6 11 C-8.65466049 11.23043864 -8.65466049 11.23043864 -11 12 C-10.67 11.01 -10.34 10.02 -10 9 C-7.69 9 -5.38 9 -3 9 C-3 6.69 -3 4.38 -3 2 C-2.34 2 -1.68 2 -1 2 C-0.67 1.34 -0.34 0.68 0 0 Z " fill="#E6E4DB" transform="translate(67,100)"/>
<path d="M0 0 C0.66 0.66 1.32 1.32 2 2 C-0.99531539 2.99843846 -2.17255732 3.00732761 -5.1875 2.5625 C-6.445625 2.376875 -7.70375 2.19125 -9 2 C-9 3.65 -9 5.3 -9 7 C-7.35 7 -5.7 7 -4 7 C-3.34 8.32 -2.68 9.64 -2 11 C-3.32 10.67 -4.64 10.34 -6 10 C-6.33 10.66 -6.66 11.32 -7 12 C-7.99 12.495 -7.99 12.495 -9 13 C-10.29243536 8.8803623 -11.26252625 5.33168317 -11 1 C-7.23056711 -1.56321436 -4.3179896 -0.95955325 0 0 Z " fill="#D3DBDE" transform="translate(39,20)"/>
<path d="M0 0 C5.61 0 11.22 0 17 0 C16.34 1.32 15.68 2.64 15 4 C12.3984375 4.609375 12.3984375 4.609375 9.375 4.75 C8.37210938 4.80671875 7.36921875 4.8634375 6.3359375 4.921875 C5.56507812 4.94765625 4.79421875 4.9734375 4 5 C3.67 4.01 3.34 3.02 3 2 C2.01 1.34 1.02 0.68 0 0 Z " fill="#5A6163" transform="translate(68,3)"/>
<path d="M0 0 C0.33 0.66 0.66 1.32 1 2 C0.01 2.66 -0.98 3.32 -2 4 C-2.73343428 7.06556598 -2.73343428 7.06556598 -3 10 C-1.68 10 -0.36 10 1 10 C0.67 10.66 0.34 11.32 0 12 C-2.64 12 -5.28 12 -8 12 C-8 10.68 -8 9.36 -8 8 C-7.34 8 -6.68 8 -6 8 C-6 7.34 -6 6.68 -6 6 C-6.99 5.67 -7.98 5.34 -9 5 C-8.67 4.01 -8.34 3.02 -8 2 C-6.15234375 1.26953125 -6.15234375 1.26953125 -3.9375 0.8125 C-3.20402344 0.65394531 -2.47054687 0.49539062 -1.71484375 0.33203125 C-1.14894531 0.22246094 -0.58304688 0.11289062 0 0 Z " fill="#404D4D" transform="translate(138,56)"/>
<path d="M0 0 C6.59578207 3.42003515 6.59578207 3.42003515 8.4375 6.0625 C9 8 9 8 9 11 C7.68 11.33 6.36 11.66 5 12 C4.67 11.34 4.34 10.68 4 10 C4.33 9.34 4.66 8.68 5 8 C3.35 7.67 1.7 7.34 0 7 C0.33 5.35 0.66 3.7 1 2 C0.34 1.67 -0.32 1.34 -1 1 C-0.67 0.67 -0.34 0.34 0 0 Z " fill="#586061" transform="translate(142,7)"/>
<path d="M0 0 C0 0.66 0 1.32 0 2 C-2.03814233 2.67736481 -4.08070555 3.34143534 -6.125 4 C-7.83042969 4.556875 -7.83042969 4.556875 -9.5703125 5.125 C-12.87895941 5.96911949 -15.60528016 6.16509276 -19 6 C-19 5.01 -19 4.02 -19 3 C-16.58424393 2.49521515 -14.16755639 1.99602358 -11.75 1.5 C-11.06808594 1.35691406 -10.38617188 1.21382813 -9.68359375 1.06640625 C-6.35366879 0.38748951 -3.41667449 0 0 0 Z " fill="#EEEEE8" transform="translate(106,76)"/>
<path d="M0 0 C2.16874252 0.50603992 3.99967627 0.99983813 6 2 C6.625 4.0625 6.625 4.0625 7 6 C-1.42857143 9.28571429 -1.42857143 9.28571429 -6 10 C-5.34 8.02 -4.68 6.04 -4 4 C-1 4 -1 4 2 5 C2 4.01 2 3.02 2 2 C1.34 1.34 0.68 0.68 0 0 Z " fill="#2B3232" transform="translate(80,100)"/>
<path d="M0 0 C4.62 0 9.24 0 14 0 C15.39195915 4.17587745 13.82323219 6.13474776 12 10 C10.35 10 8.7 10 7 10 C7.33 9.01 7.66 8.02 8 7 C8.99 7.66 9.98 8.32 11 9 C10.04134491 6.66924071 10.04134491 6.66924071 7 5 C7 4.34 7 3.68 7 3 C7.66 2.67 8.32 2.34 9 2 C6.03 1.67 3.06 1.34 0 1 C0 0.67 0 0.34 0 0 Z " fill="#364040" transform="translate(36,99)"/>
<path d="M0 0 C0 0.99 0 1.98 0 3 C-8.0098625 5.25809954 -15.6875679 6.57258771 -24 7 C-21.37562161 5.25041441 -19.81796628 4.5251318 -16.875 3.7109375 C-16.08609375 3.49179688 -15.2971875 3.27265625 -14.484375 3.046875 C-13.66453125 2.82515625 -12.8446875 2.6034375 -12 2.375 C-11.18015625 2.14554687 -10.3603125 1.91609375 -9.515625 1.6796875 C-3.39676339 0 -3.39676339 0 0 0 Z " fill="#BFC0BA" transform="translate(106,73)"/>
<path d="M0 0 C2.92090003 1.30936898 4.75619462 2.75619462 7 5 C7.99 5.33 8.98 5.66 10 6 C10 6.66 10 7.32 10 8 C10.556875 8.12375 11.11375 8.2475 11.6875 8.375 C14.22114364 9.05976855 16.57921032 9.99133763 19 11 C19 11.33 19 11.66 19 12 C10.93103448 12.46551724 10.93103448 12.46551724 7.625 10.8125 C5.72070349 8.68847697 4.39464039 6.48609808 3 4 C2.01755155 2.65368175 1.02323436 1.31558703 0 0 Z " fill="#A69B8E" transform="translate(19,151)"/>
<path d="M0 0 C0.99 0 1.98 0 3 0 C3.95261487 4.76307437 4.08333357 9.1666528 4 14 C2.68 14 1.36 14 0 14 C0 9.38 0 4.76 0 0 Z " fill="#1B2221" transform="translate(117,70)"/>
<path d="M0 0 C1 2 1 2 1.4375 3.875 C1.93116979 6.04811812 1.93116979 6.04811812 3.0625 8.0625 C4 10 4 10 4 13 C3.34 13 2.68 13 2 13 C2 13.99 2 14.98 2 16 C0.68 15.67 -0.64 15.34 -2 15 C-1.34 14.67 -0.68 14.34 0 14 C-0.495 12.948125 -0.495 12.948125 -1 11.875 C-2.11142813 8.67964413 -2.29224491 6.36081648 -2 3 C-1.34 2.01 -0.68 1.02 0 0 Z " fill="#13191B" transform="translate(43,115)"/>
<path d="M0 0 C0.66 0 1.32 0 2 0 C2.226875 0.94875 2.45375 1.8975 2.6875 2.875 C3.69083714 6.19323388 3.69083714 6.19323388 6.625 7.375 C7.40875 7.58125 8.1925 7.7875 9 8 C8.6875 9.9375 8.6875 9.9375 8 12 C7.01 12.33 6.02 12.66 5 13 C4.67 12.34 4.34 11.68 4 11 C1.47266765 10.34444881 1.47266765 10.34444881 -1 10 C-0.649375 9.46375 -0.29875 8.9275 0.0625 8.375 C1.28924249 5.26725237 0.72856431 3.20568297 0 0 Z " fill="#222B2D" transform="translate(23,119)"/>
<path d="M0 0 C0.33 0.66 0.66 1.32 1 2 C2.32 1.67 3.64 1.34 5 1 C4.73958333 2.98567708 4.47916667 4.97135417 4.21875 6.95703125 C3.946767 9.15471706 3.946767 9.15471706 4 12 C2.68 12 1.36 12 0 12 C0.33 10.68 0.66 9.36 1 8 C0.34 8 -0.32 8 -1 8 C-1.33 5.69 -1.66 3.38 -2 1 C-1.34 0.67 -0.68 0.34 0 0 Z " fill="#545E5F" transform="translate(25,17)"/>
<path d="M0 0 C-1.35720559 4.44176375 -2.99386169 6.61336441 -7 9 C-9.99445567 9.60291054 -12.95094947 9.86714377 -16 10 C-16 9.67 -16 9.34 -16 9 C-14.35 9 -12.7 9 -11 9 C-10.67 8.01 -10.34 7.02 -10 6 C-9.01 5.67 -8.02 5.34 -7 5 C-7.33 4.34 -7.66 3.68 -8 3 C-7.01 3 -6.02 3 -5 3 C-5 2.34 -5 1.68 -5 1 C-2 0 -2 0 0 0 Z " fill="#D0D0C6" transform="translate(68,120)"/>
<path d="M0 0 C4.29 0.99 8.58 1.98 13 3 C11.68 4.32 10.36 5.64 9 7 C5.31864501 6.93541482 2.96838114 6.78095253 0.0625 4.4375 C-0.288125 3.963125 -0.63875 3.48875 -1 3 C-0.67 2.01 -0.34 1.02 0 0 Z " fill="#EFF2EE" transform="translate(26,77)"/>
<path d="M0 0 C0.66 0 1.32 0 2 0 C2.33 2.97 2.66 5.94 3 9 C2.67 9 2.34 9 2 9 C2 7.35 2 5.7 2 4 C1.24074219 4.2165625 0.48148438 4.433125 -0.30078125 4.65625 C-1.29464844 4.9346875 -2.28851563 5.213125 -3.3125 5.5 C-4.79169922 5.91765625 -4.79169922 5.91765625 -6.30078125 6.34375 C-9 7 -9 7 -12 7 C-11.67 6.01 -11.34 5.02 -11 4 C-8.5625 2.875 -8.5625 2.875 -6 2 C-5.34 1.67 -4.68 1.34 -4 1 C-1.875 1.4375 -1.875 1.4375 0 2 C0 1.34 0 0.68 0 0 Z " fill="#464E50" transform="translate(57,58)"/>
<path d="M0 0 C3.90168516 1.47994954 4.90715049 3.51191749 7 7 C8.32 7.66 9.64 8.32 11 9 C11 12.63 11 16.26 11 20 C10.67 20 10.34 20 10 20 C10 18.02 10 16.04 10 14 C9.34 14 8.68 14 8 14 C7.731875 13.236875 7.46375 12.47375 7.1875 11.6875 C6.20932644 9.0363501 6.20932644 9.0363501 4.5625 7.5625 C2.36386989 5.36386989 1.30466063 2.79570135 0 0 Z " fill="#BFB9B2" transform="translate(152,16)"/>
<path d="M0 0 C-4.75 4 -4.75 4 -7 4 C-7.33 4.99 -7.66 5.98 -8 7 C-10.4375 6.1875 -10.4375 6.1875 -13 5 C-13.33 4.01 -13.66 3.02 -14 2 C-12.42085985 1.46658816 -10.83645613 0.94874237 -9.25 0.4375 C-8.36828125 0.14746094 -7.4865625 -0.14257812 -6.578125 -0.44140625 C-3.92165684 -1.01697435 -2.52968894 -0.89248371 0 0 Z " fill="#393F41" transform="translate(90,98)"/>
<path d="M0 0 C0.33 1.65 0.66 3.3 1 5 C0.01 5.495 0.01 5.495 -1 6 C-1 6.66 -1 7.32 -1 8 C-2.65 7.67 -4.3 7.34 -6 7 C-5.67 6.01 -5.34 5.02 -5 4 C-7.475 3.01 -7.475 3.01 -10 2 C-6.5980513 -0.09350689 -3.94727588 -0.17942163 0 0 Z " fill="#2F3838" transform="translate(106,64)"/>
<path d="M0 0 C1.010625 0.33 2.02125 0.66 3.0625 1 C6.75479911 2.07001321 10.15248207 2.15704155 14 2 C14.625 3.875 14.625 3.875 15 6 C14.34 6.66 13.68 7.32 13 8 C11.68 7.34 10.36 6.68 9 6 C9 5.34 9 4.68 9 4 C6.36 4.33 3.72 4.66 1 5 C0.67 3.35 0.34 1.7 0 0 Z " fill="#1B2428" transform="translate(93,122)"/>
<path d="M0 0 C-0.66 0 -1.32 0 -2 0 C-2 0.99 -2 1.98 -2 3 C-1.34 3.33 -0.68 3.66 0 4 C0 4.66 0 5.32 0 6 C-3.63 6 -7.26 6 -11 6 C-8.56528347 1.13056693 -5.58424025 -1.86141342 0 0 Z " fill="#353D42" transform="translate(48,73)"/>
<path d="M0 0 C0.598125 0.350625 1.19625 0.70125 1.8125 1.0625 C4.10813214 2.33304698 4.10813214 2.33304698 7 1 C9.1875 1.4375 9.1875 1.4375 11 2 C10.67 2.99 10.34 3.98 10 5 C9.11248047 5.09087891 9.11248047 5.09087891 8.20703125 5.18359375 C4.09021792 5.62012371 0.04455467 6.08671346 -4 7 C-3.43628586 3.73045798 -2.50037734 2.17424117 0 0 Z " fill="#555F60" transform="translate(128,34)"/>
<path d="M0 0 C0.350625 0.474375 0.70125 0.94875 1.0625 1.4375 C3.04801389 3.31123948 3.04801389 3.31123948 6.5 3.5 C10 4 10 4 11.9375 5.5625 C12.288125 6.036875 12.63875 6.51125 13 7 C12.67 7.66 12.34 8.32 12 9 C11.34 8.34 10.68 7.68 10 7 C7.41645782 6.83312552 7.41645782 6.83312552 5 7 C7.78918149 8.10540926 7.78918149 8.10540926 10 8 C10 8.66 10 9.32 10 10 C3.57789614 10.48468708 3.57789614 10.48468708 1.0625 8.375 C-0.25066255 5.43969547 -0.21691118 3.18136394 0 0 Z " fill="#C8D0D2" transform="translate(29,28)"/>
<path d="M0 0 C0 2.31 0 4.62 0 7 C-8.261959 10.62870159 -8.261959 10.62870159 -13 9 C-9.86501708 7.14223235 -7.62528568 6.79859524 -4 7 C-4.061875 6.21625 -4.12375 5.4325 -4.1875 4.625 C-4.125625 3.75875 -4.06375 2.8925 -4 2 C-1 0 -1 0 0 0 Z " fill="#1D2221" transform="translate(110,86)"/>
<path d="M0 0 C3.12290635 0.48578543 5.99580359 0.9986012 9 2 C9.33 2.99 9.66 3.98 10 5 C4.6440678 6.33898305 4.6440678 6.33898305 1.625 4.75 C0 3 0 3 0 0 Z " fill="#D6D7D2" transform="translate(25,121)"/>
<path d="M0 0 C-0.99 0.495 -0.99 0.495 -2 1 C-2 1.66 -2 2.32 -2 3 C-6.79137588 4.6290678 -10.05632546 5.20577428 -15 4 C-14.34 3.01 -13.68 2.02 -13 1 C-8.62250319 0.21061533 -4.45083248 -0.13908851 0 0 Z " fill="#E8E8E1" transform="translate(103,91)"/>
<path d="M0 0 C0.33 0.66 0.66 1.32 1 2 C0.0625 4.125 0.0625 4.125 -1 6 C-0.34 6 0.32 6 1 6 C0.67 8.64 0.34 11.28 0 14 C-0.99 13.67 -1.98 13.34 -3 13 C-3 11.02 -3 9.04 -3 7 C-3.66 7.66 -4.32 8.32 -5 9 C-4.42647107 5.12867972 -2.51295648 2.91827204 0 0 Z " fill="#222525" transform="translate(46,109)"/>
<path d="M0 0 C2.9375 0.375 2.9375 0.375 6 1 C6.33 1.66 6.66 2.32 7 3 C6.01 3 5.02 3 4 3 C3.67 3.66 3.34 4.32 3 5 C0.71484375 5.4140625 0.71484375 5.4140625 -2.0625 5.625 C-2.98160156 5.69976562 -3.90070313 5.77453125 -4.84765625 5.8515625 C-5.91306641 5.92503906 -5.91306641 5.92503906 -7 6 C-7 5.01 -7 4.02 -7 3 C-5.5459375 2.814375 -5.5459375 2.814375 -4.0625 2.625 C-2.5465625 2.315625 -2.5465625 2.315625 -1 2 C-0.67 1.34 -0.34 0.68 0 0 Z " fill="#1B2629" transform="translate(95,66)"/>
<path d="M0 0 C0 0.66 0 1.32 0 2 C0.99 2 1.98 2 3 2 C3 1.34 3 0.68 3 0 C4.32 0.66 5.64 1.32 7 2 C3.04 2.99 -0.92 3.98 -5 5 C-4.67 6.32 -4.34 7.64 -4 9 C-4.99 8.67 -5.98 8.34 -7 8 C-6.67 6.35 -6.34 4.7 -6 3 C-5.34 3 -4.68 3 -4 3 C-4 2.34 -4 1.68 -4 1 C-2 0 -2 0 0 0 Z " fill="#1C2628" transform="translate(79,54)"/>
<path d="M0 0 C1.65 0 3.3 0 5 0 C5.144375 0.61875 5.28875 1.2375 5.4375 1.875 C5.93152225 4.03258322 5.93152225 4.03258322 7 6 C5.35 6.33 3.7 6.66 2 7 C2 7.66 2 8.32 2 9 C1.34 9 0.68 9 0 9 C0 6.03 0 3.06 0 0 Z " fill="#3B4445" transform="translate(121,47)"/>
<path d="M0 0 C0.66 0.33 1.32 0.66 2 1 C1.360625 1.2475 0.72125 1.495 0.0625 1.75 C-2.18729876 2.7925291 -2.18729876 2.7925291 -2.5625 5 C-2.706875 5.66 -2.85125 6.32 -3 7 C-3.99 7.66 -4.98 8.32 -6 9 C-6 9.99 -6 10.98 -6 12 C-6.66 12 -7.32 12 -8 12 C-8 11.34 -8 10.68 -8 10 C-8.99 9.67 -9.98 9.34 -11 9 C-9.73113036 7.87278564 -8.45982438 6.74831342 -7.1875 5.625 C-6.47980469 4.99851562 -5.77210937 4.37203125 -5.04296875 3.7265625 C-3 2 -3 2 0 0 Z " fill="#676E6C" transform="translate(22,5)"/>
<path d="M0 0 C3.96 0 7.92 0 12 0 C11.01 0.495 11.01 0.495 10 1 C10.33 2.32 10.66 3.64 11 5 C5.04296875 4.609375 5.04296875 4.609375 3 4 C2.01 2.68 1.02 1.36 0 0 Z " fill="#2F373A" transform="translate(30,44)"/>
<path d="M0 0 C0 0.99 0 1.98 0 3 C-3.13068506 5.91722926 -6.03209924 8.32127275 -10 10 C-8.64844718 5.57673622 -6.80109562 3.59587018 -3 1 C-2.01 0.67 -1.02 0.34 0 0 Z " fill="#D3D4D0" transform="translate(56,109)"/>
<path d="M0 0 C1.65 1.65 3.3 3.3 5 5 C3.75 6.5 3.75 6.5 2 8 C-1.75482645 8 -2.9681144 7.88186002 -6 6 C-6.33 5.34 -6.66 4.68 -7 4 C-6.01 3.01 -5.02 2.02 -4 1 C-3.566875 1.9590625 -3.566875 1.9590625 -3.125 2.9375 C-2.17176549 5.15206079 -2.17176549 5.15206079 0 6 C-0.33 5.01 -0.66 4.02 -1 3 C-0.67 2.01 -0.34 1.02 0 0 Z " fill="#21282A" transform="translate(93,114)"/>
<path d="M0 0 C0.33 0 0.66 0 1 0 C1 3.63 1 7.26 1 11 C-3 9 -3 9 -4 7.1875 C-4 3.84397135 -2.22280962 2.35356312 0 0 Z " fill="#11191B" transform="translate(92,109)"/>
<path d="M0 0 C0 2 0 4 0 6 C-4.34285714 10 -4.34285714 10 -7 10 C-5.76075855 5.04303419 -4.21422242 2.88341534 0 0 Z " fill="#D7D9D0" transform="translate(100,101)"/>
<path d="M0 0 C3.34097385 0.59660247 5.54300129 1.63075125 8 4 C8 5.32 8 6.64 8 8 C6.68 7.67 5.36 7.34 4 7 C4 6.34 4 5.68 4 5 C3.34 5 2.68 5 2 5 C1.34 3.35 0.68 1.7 0 0 Z " fill="#BEBCB5" transform="translate(155,0)"/>
<path d="M0 0 C1.32 0.33 2.64 0.66 4 1 C4.625 3.375 4.625 3.375 5 6 C4.34 6.66 3.68 7.32 3 8 C2.01 8 1.02 8 0 8 C0 5.36 0 2.72 0 0 Z " fill="#353C3C" transform="translate(121,62)"/>
<path d="M0 0 C2.5 2.3125 2.5 2.3125 5 5 C5 5.99 5 6.98 5 8 C2.69 7.67 0.38 7.34 -2 7 C-2.33 6.01 -2.66 5.02 -3 4 C-2.34 4 -1.68 4 -1 4 C-0.67 2.68 -0.34 1.36 0 0 Z " fill="#4B5658" transform="translate(23,37)"/>
<path d="M0 0 C6.75 0.75 6.75 0.75 9 3 C8.75 5.0625 8.75 5.0625 8 7 C7.01 7.495 7.01 7.495 6 8 C6 7.34 6 6.68 6 6 C4.68 5.67 3.36 5.34 2 5 C3.65 5 5.3 5 7 5 C7 4.34 7 3.68 7 3 C5.35 3.33 3.7 3.66 2 4 C1.34 2.68 0.68 1.36 0 0 Z " fill="#586061" transform="translate(32,33)"/>
<path d="M0 0 C0 0.99 0 1.98 0 3 C-2.5 4.6875 -2.5 4.6875 -5 6 C-5 5.34 -5 4.68 -5 4 C-5.99 4.33 -6.98 4.66 -8 5 C-10.33299825 5.03954234 -12.66708189 5.04401732 -15 5 C-15 4.67 -15 4.34 -15 4 C-14.00097656 3.79503906 -13.00195312 3.59007812 -11.97265625 3.37890625 C-10.68230469 3.10949219 -9.39195312 2.84007812 -8.0625 2.5625 C-6.77472656 2.29566406 -5.48695313 2.02882812 -4.16015625 1.75390625 C-1.15361121 1.32818384 -1.15361121 1.32818384 0 0 Z " fill="#171512" transform="translate(144,147)"/>
<path d="M0 0 C0.33 0.66 0.66 1.32 1 2 C1.66 2 2.32 2 3 2 C3 3.98 3 5.96 3 8 C2.01 8 1.02 8 0 8 C-0.33 8.66 -0.66 9.32 -1 10 C-1.66 10 -2.32 10 -3 10 C-2.21302675 6.58978257 -1.12880057 3.31114834 0 0 Z " fill="#202826" transform="translate(154,126)"/>
<path d="M0 0 C0 0.99 0 1.98 0 3 C-0.66 3 -1.32 3 -2 3 C-2 3.66 -2 4.32 -2 5 C-3.32 5 -4.64 5 -6 5 C-6 4.34 -6 3.68 -6 3 C-6.99 3 -7.98 3 -9 3 C-9 3.66 -9 4.32 -9 5 C-9.99 4.67 -10.98 4.34 -12 4 C-9.57869669 1.57869669 -8.19888623 1.47159496 -4.875 0.875 C-3.50988281 0.62363281 -3.50988281 0.62363281 -2.1171875 0.3671875 C-1.06917969 0.18542969 -1.06917969 0.18542969 0 0 Z M-8 5 C-6 6 -6 6 -6 6 Z " fill="#232727" transform="translate(109,118)"/>
<path d="M0 0 C2.31 0.66 4.62 1.32 7 2 C7 2.99 7 3.98 7 5 C4.64561267 6.42944945 3.51967567 7.08661261 0.75 6.625 C0.1725 6.41875 -0.405 6.2125 -1 6 C-0.835 5.38125 -0.67 4.7625 -0.5 4.125 C0.07634644 2.03936614 0.07634644 2.03936614 0 0 Z " fill="#303636" transform="translate(27,111)"/>
<path d="M0 0 C0 0.99 0 1.98 0 3 C-0.639375 3.28875 -1.27875 3.5775 -1.9375 3.875 C-4.15206079 4.82823451 -4.15206079 4.82823451 -5 7 C-8 6 -8 6 -11 3 C-7.37 2.01 -3.74 1.02 0 0 Z " fill="#43494B" transform="translate(137,85)"/>
<path d="M0 0 C4.29 0.66 8.58 1.32 13 2 C13 2.33 13 2.66 13 3 C8.71 3.99 4.42 4.98 0 6 C0 4.02 0 2.04 0 0 Z " fill="#303838" transform="translate(77,60)"/>
<path d="M0 0 C2 3 2 3 2 5 C3.65 5 5.3 5 7 5 C7.66 6.32 8.32 7.64 9 9 C7.68 8.67 6.36 8.34 5 8 C4.67 8.66 4.34 9.32 4 10 C3.01 10.495 3.01 10.495 2 11 C0.80712589 7.12315913 0 4.08378077 0 0 Z " fill="#E6EDF0" transform="translate(28,22)"/>
<path d="M0 0 C0.33 1.32 0.66 2.64 1 4 C0.01 4.33 -0.98 4.66 -2 5 C-2 4.34 -2 3.68 -2 3 C-3.98 3 -5.96 3 -8 3 C-8.33 2.34 -8.66 1.68 -9 1 C-5.92677456 0.08941469 -3.19902639 -0.08886184 0 0 Z " fill="#D5DBD5" transform="translate(138,81)"/>
<path d="M0 0 C0 0.66 0 1.32 0 2 C-0.99 2.33 -1.98 2.66 -3 3 C-3 3.99 -3 4.98 -3 6 C-4.65 6 -6.3 6 -8 6 C-8 4.68 -8 3.36 -8 2 C-4.91190305 0.23537317 -3.76687864 0 0 0 Z " fill="#C7C6BE" transform="translate(82,80)"/>
<path d="M0 0 C0.66 1.65 1.32 3.3 2 5 C-0.8125 5.6875 -0.8125 5.6875 -4 6 C-5.875 4.5625 -5.875 4.5625 -7 3 C-5.40442685 -0.19114631 -3.35905282 0 0 0 Z " fill="#333B3A" transform="translate(98,70)"/>
<path d="M0 0 C0 0.66 0 1.32 0 2 C-3.75 3.125 -3.75 3.125 -6 2 C-6 2.66 -6 3.32 -6 4 C-6.99 4 -7.98 4 -9 4 C-9 3.34 -9 2.68 -9 2 C-9.66 1.67 -10.32 1.34 -11 1 C-3.57142857 -1.42857143 -3.57142857 -1.42857143 0 0 Z " fill="#3A4243" transform="translate(88,52)"/>
<path d="M0 0 C0.66 0 1.32 0 2 0 C2.185625 0.9590625 2.185625 0.9590625 2.375 1.9375 C2.684375 2.9584375 2.684375 2.9584375 3 4 C3.66 4.33 4.32 4.66 5 5 C4.67 5.99 4.34 6.98 4 8 C2.68 8.33 1.36 8.66 0 9 C0 6.03 0 3.06 0 0 Z " fill="#323734" transform="translate(74,87)"/>
<path d="M0 0 C0.99 0.33 1.98 0.66 3 1 C2.34 1.66 1.68 2.32 1 3 C0.34 2.34 -0.32 1.68 -1 1 C-0.67 0.67 -0.34 0.34 0 0 Z M-6 2 C-3.69 2.33 -1.38 2.66 1 3 C0.67 3.99 0.34 4.98 0 6 C-2.31 5.67 -4.62 5.34 -7 5 C-6.67 4.01 -6.34 3.02 -6 2 Z " fill="#2E3739" transform="translate(30,85)"/>
<path d="M0 0 C0 1.65 0 3.3 0 5 C-2.31 5.33 -4.62 5.66 -7 6 C-5.61469317 1.84407951 -4.52657396 0 0 0 Z " fill="#E7EDE7" transform="translate(59,76)"/>
<path d="M0 0 C0.33 0 0.66 0 1 0 C1 3.96 1 7.92 1 12 C-0.65 12.33 -2.3 12.66 -4 13 C-3.6875 11.0625 -3.6875 11.0625 -3 9 C-2.01 8.67 -1.02 8.34 0 8 C0 5.36 0 2.72 0 0 Z " fill="#535C5C" transform="translate(110,45)"/>
<path d="M0 0 C2 2 2 2 2 5 C1.01 5.66 0.02 6.32 -1 7 C-2.32 5.68 -3.64 4.36 -5 3 C-3.35 2.01 -1.7 1.02 0 0 Z " fill="#D2D0C7" transform="translate(99,113)"/>
<path d="M0 0 C1.65 0 3.3 0 5 0 C5 1.65 5 3.3 5 5 C3.35 5.33 1.7 5.66 0 6 C-0.33 5.34 -0.66 4.68 -1 4 C-0.34 4 0.32 4 1 4 C0.67 2.68 0.34 1.36 0 0 Z " fill="#D4D8D2" transform="translate(54,91)"/>
<path d="M0 0 C1 2 1 2 0.5 3.875 C-0.06796534 6.28885269 0.25055468 7.66839233 1 10 C-0.66666667 10 -2.33333333 10 -4 10 C-3.52449439 8.51965236 -3.04448784 7.04074979 -2.5625 5.5625 C-2.29566406 4.73878906 -2.02882813 3.91507813 -1.75390625 3.06640625 C-1 1 -1 1 0 0 Z " fill="#5D6464" transform="translate(10,16)"/>
<path d="M0 0 C0.99 0 1.98 0 3 0 C3.33 1.65 3.66 3.3 4 5 C1.69 5.33 -0.62 5.66 -3 6 C-2.01 4.02 -1.02 2.04 0 0 Z " fill="#F1F2EC" transform="translate(144,0)"/>
<path d="M0 0 C1.95979427 0.28168297 3.91782378 0.57566717 5.875 0.875 C7.51082031 1.11863281 7.51082031 1.11863281 9.1796875 1.3671875 C12 2 12 2 14 4 C10.7 4 7.4 4 4 4 C4 3.34 4 2.68 4 2 C2.68 1.67 1.36 1.34 0 1 C0 0.67 0 0.34 0 0 Z " fill="#816D5A" transform="translate(25,155)"/>
<path d="M0 0 C0.66 0 1.32 0 2 0 C2 0.66 2 1.32 2 2 C3.32 2.66 4.64 3.32 6 4 C4.68 5.32 3.36 6.64 2 8 C1.34 7.67 0.68 7.34 0 7 C0.33 6.34 0.66 5.68 1 5 C0.34 5 -0.32 5 -1 5 C-0.67 3.35 -0.34 1.7 0 0 Z " fill="#272422" transform="translate(142,144)"/>
<path d="M0 0 C-1.32 1.32 -2.64 2.64 -4 4 C-3.34 4.33 -2.68 4.66 -2 5 C-3.98 5.33 -5.96 5.66 -8 6 C-7.67 4.02 -7.34 2.04 -7 0 C-3.86650268 -1.04449911 -3.01031744 -0.93423645 0 0 Z " fill="#DBDBD5" transform="translate(56,78)"/>
<path d="M0 0 C0.66 0.33 1.32 0.66 2 1 C1.67 1.99 1.34 2.98 1 4 C1.66 4 2.32 4 3 4 C3.33 5.32 3.66 6.64 4 8 C3.01 8.33 2.02 8.66 1 9 C-1.09230769 4.56923077 -1.09230769 4.56923077 -0.625 1.6875 C-0.41875 1.130625 -0.2125 0.57375 0 0 Z " fill="#1A2022" transform="translate(13,138)"/>
<path d="M0 0 C1.32 0.33 2.64 0.66 4 1 C4.08886184 4.19902639 3.91058531 6.92677456 3 10 C2.34 9.67 1.68 9.34 1 9 C0.45091494 5.98003217 0 3.07380605 0 0 Z " fill="#2A3434" transform="translate(138,94)"/>
<path d="M0 0 C1.98 0.66 3.96 1.32 6 2 C5.01 2.495 5.01 2.495 4 3 C3.67 3.99 3.34 4.98 3 6 C1.68 5.34 0.36 4.68 -1 4 C-0.67 2.68 -0.34 1.36 0 0 Z " fill="#D8DCDA" transform="translate(26,91)"/>
<path d="M0 0 C0.33 1.65 0.66 3.3 1 5 C-0.65 5.33 -2.3 5.66 -4 6 C-4 4.68 -4 3.36 -4 2 C-4.99 1.67 -5.98 1.34 -7 1 C-4.50935112 0.31292445 -2.62113708 0 0 0 Z " fill="#D9DAD3" transform="translate(89,92)"/>
<path d="M0 0 C0.99 0.99 1.98 1.98 3 3 C2.01 3.33 1.02 3.66 0 4 C0 4.99 0 5.98 0 7 C-0.99 7.33 -1.98 7.66 -3 8 C-3 4.04914614 -2.80023655 2.80023655 0 0 Z " fill="#2B3539" transform="translate(140,84)"/>
<path d="M0 0 C-0.99 0.66 -1.98 1.32 -3 2 C-2.67 2.66 -2.34 3.32 -2 4 C-3.65 4 -5.3 4 -7 4 C-7.33 2.68 -7.66 1.36 -8 0 C-4.94736336 -0.98120464 -3.05263664 -0.98120464 0 0 Z " fill="#3F4544" transform="translate(90,84)"/>
<path d="M0 0 C1 3 1 3 0.3125 5.625 C-1 8 -1 8 -3.125 8.8125 C-3.74375 8.874375 -4.3625 8.93625 -5 9 C-4.01 6.69 -3.02 4.38 -2 2 C-1.34 2 -0.68 2 0 2 C0 1.34 0 0.68 0 0 Z " fill="#6B5647" transform="translate(152,142)"/>
<path d="M0 0 C2.0625 0.4375 2.0625 0.4375 4 1 C3.39816251 3.02045442 2.72693904 5.02111039 2 7 C1.01 7.495 1.01 7.495 0 8 C-0.38063221 5.6739143 -0.71269945 3.33944736 -1 1 C-0.67 0.67 -0.34 0.34 0 0 Z " fill="#DBDAD2" transform="translate(112,107)"/>
<path d="M0 0 C1.9375 0.3125 1.9375 0.3125 4 1 C4.33 1.99 4.66 2.98 5 4 C4.34 4.66 3.68 5.32 3 6 C2.67 5.67 2.34 5.34 2 5 C1.34 5.99 0.68 6.98 0 8 C-1.43088528 5.13822943 -0.59991697 3.06624227 0 0 Z " fill="#21282A" transform="translate(74,101)"/>
<path d="M0 0 C0.85851562 0.55300781 0.85851562 0.55300781 1.734375 1.1171875 C-2.2844765 2.92961073 -5.87673175 4.45220367 -10.265625 5.1171875 C-10.265625 4.4571875 -10.265625 3.7971875 -10.265625 3.1171875 C-9.02678181 2.38951747 -7.77394159 1.68563935 -6.515625 0.9921875 C-5.81953125 0.59773438 -5.1234375 0.20328125 -4.40625 -0.203125 C-2.265625 -0.8828125 -2.265625 -0.8828125 0 0 Z " fill="#555D5D" transform="translate(133.265625,50.8828125)"/>
<path d="M0 0 C1.32 0 2.64 0 4 0 C4 1.32 4 2.64 4 4 C4.66 4.33 5.32 4.66 6 5 C4.02 5.33 2.04 5.66 0 6 C0 4.02 0 2.04 0 0 Z " fill="#C9CCCA" transform="translate(121,41)"/>
<path d="M0 0 C2.30143236 3.45214853 2.13833854 4.23479324 1.625 8.1875 C1.51414063 9.08855469 1.40328125 9.98960938 1.2890625 10.91796875 C1.19367188 11.60503906 1.09828125 12.29210938 1 13 C-1.39964525 8.77928009 -1.23553231 5.78915699 -1 1 C-0.67 0.67 -0.34 0.34 0 0 Z " fill="#4C4E4D" transform="translate(156,26)"/>
<path d="M0 0 C3.16115776 1.36983503 3.9927092 1.9890638 6 5 C6.125 8.1875 6.125 8.1875 6 11 C3.74306568 8.74306568 3.12707993 6.95858483 2 4 C1.34786461 2.65949948 0.68620031 1.32338632 0 0 Z " fill="#E2EAEC" transform="translate(40,22)"/>
<path d="M0 0 C-0.33 1.98 -0.66 3.96 -1 6 C-2.98 4.68 -4.96 3.36 -7 2 C-4.35261084 0.5393715 -3.10551666 0 0 0 Z " fill="#E0E2DD" transform="translate(149,5)"/>
<path d="M0 0 C0 1.32 0 2.64 0 4 C0.66 4.33 1.32 4.66 2 5 C0.02 5.33 -1.96 5.66 -4 6 C-4 4.35 -4 2.7 -4 1 C-2 0 -2 0 0 0 Z " fill="#B6B4AD" transform="translate(78,109)"/>
<path d="M0 0 C0.66 0 1.32 0 2 0 C2.33 1.65 2.66 3.3 3 5 C-0.75 8 -0.75 8 -3 8 C-2.690625 7.236875 -2.38125 6.47375 -2.0625 5.6875 C-1.32106407 3.81210323 -0.63771783 1.91315348 0 0 Z " fill="#1A201F" transform="translate(89,107)"/>
<path d="M0 0 C-2 3 -2 3 -4.125 3.6875 C-4.74375 3.790625 -5.3625 3.89375 -6 4 C-6.66 2.68 -7.32 1.36 -8 0 C-4.94736336 -0.98120464 -3.05263664 -0.98120464 0 0 Z " fill="#3C4042" transform="translate(98,96)"/>
<path d="M0 0 C3.3 0.66 6.6 1.32 10 2 C10 2.33 10 2.66 10 3 C6.37 3.33 2.74 3.66 -1 4 C-0.67 2.68 -0.34 1.36 0 0 Z " fill="#454B48" transform="translate(128,93)"/>
<path d="M0 0 C0.99 0.33 1.98 0.66 3 1 C3 1.66 3 2.32 3 3 C4.32 3 5.64 3 7 3 C6.67 3.66 6.34 4.32 6 5 C3.36 5 0.72 5 -2 5 C-2 3.68 -2 2.36 -2 1 C-1.34 0.67 -0.68 0.34 0 0 Z " fill="#4B5758" transform="translate(132,63)"/>
<path d="M0 0 C0.99 0.33 1.98 0.66 3 1 C3 1.66 3 2.32 3 3 C2.01 3 1.02 3 0 3 C0 3.99 0 4.98 0 6 C-1.32 6.33 -2.64 6.66 -4 7 C-3.43628586 3.73045798 -2.50037734 2.17424117 0 0 Z " fill="#4E5656" transform="translate(128,34)"/>
<path d="M0 0 C1.98 0.495 1.98 0.495 4 1 C4.625 2.8125 4.625 2.8125 5 5 C4.01 6.485 4.01 6.485 3 8 C0 3.375 0 3.375 0 0 Z " fill="#51595B" transform="translate(39,30)"/>
<path d="M0 0 C1.98 0.66 3.96 1.32 6 2 C6.33 3.65 6.66 5.3 7 7 C6.01 7.495 6.01 7.495 5 8 C4.38125 7.21625 3.7625 6.4325 3.125 5.625 C1.10141339 3.03162353 1.10141339 3.03162353 -1 1 C-0.67 0.67 -0.34 0.34 0 0 Z " fill="#545C5F" transform="translate(40,19)"/>
<path d="M0 0 C0.33 0.66 0.66 1.32 1 2 C0.0625 4.125 0.0625 4.125 -1 6 C-1.66 6 -2.32 6 -3 6 C-3.33 6.99 -3.66 7.98 -4 9 C-4.99 8.67 -5.98 8.34 -7 8 C-5.625 6 -5.625 6 -4 4 C-3.34 4 -2.68 4 -2 4 C-1.34 2.68 -0.68 1.36 0 0 Z " fill="#1C140D" transform="translate(153,138)"/>
<path d="M0 0 C1.98 0.495 1.98 0.495 4 1 C3.67 2.65 3.34 4.3 3 6 C1.68 5.34 0.36 4.68 -1 4 C-0.67 2.68 -0.34 1.36 0 0 Z " fill="#D1D7D6" transform="translate(26,106)"/>
<path d="M0 0 C0.33 1.65 0.66 3.3 1 5 C-0.65 5.33 -2.3 5.66 -4 6 C-4 4.35 -4 2.7 -4 1 C-2 0 -2 0 0 0 Z " fill="#BDBBB3" transform="translate(78,95)"/>
<path d="M0 0 C0.33 1.32 0.66 2.64 1 4 C2.98 3.67 4.96 3.34 7 3 C7 4.32 7 5.64 7 7 C4.61435923 6.42415568 2.33317216 5.77772405 0 5 C0 3.35 0 1.7 0 0 Z " fill="#4C4F4D" transform="translate(120,71)"/>
<path d="M0 0 C2.4375 0.375 2.4375 0.375 5 1 C5.33 1.66 5.66 2.32 6 3 C4.02 3.33 2.04 3.66 0 4 C0 2.68 0 1.36 0 0 Z " fill="#1B2426" transform="translate(80,70)"/>
<path d="M0 0 C0.185625 0.9590625 0.185625 0.9590625 0.375 1.9375 C0.684375 2.9584375 0.684375 2.9584375 1 4 C1.66 4.33 2.32 4.66 3 5 C1.02 5.33 -0.96 5.66 -3 6 C-3 4.35 -3 2.7 -3 1 C-2.01 0.67 -1.02 0.34 0 0 Z " fill="#D1D3CE" transform="translate(124,55)"/>
<path d="M0 0 C0.33 0.66 0.66 1.32 1 2 C2.65 1.67 4.3 1.34 6 1 C6.33 2.32 6.66 3.64 7 5 C3.79604584 5 1.90600261 4.25664978 -1 3 C-0.67 2.01 -0.34 1.02 0 0 Z " fill="#444F53" transform="translate(134,32)"/>
<path d="M0 0 C2.475 0.99 2.475 0.99 5 2 C3.06745228 4.0245738 1.36841312 5.42105792 -1 7 C-1.625 4.625 -1.625 4.625 -2 2 C-1.34 1.34 -0.68 0.68 0 0 Z " fill="#465254" transform="translate(25,66)"/>
<path d="M0 0 C2.31 0.33 4.62 0.66 7 1 C5.68 2.32 4.36 3.64 3 5 C2.01 4.34 1.02 3.68 0 3 C0 2.01 0 1.02 0 0 Z " fill="#E5EDEF" transform="translate(25,63)"/>
<path d="M0 0 C0.33 0.99 0.66 1.98 1 3 C2.32 3 3.64 3 5 3 C4.67 3.66 4.34 4.32 4 5 C2.68 4.67 1.36 4.34 0 4 C-0.33 4.66 -0.66 5.32 -1 6 C-1.66 5.34 -2.32 4.68 -3 4 C-3 3.01 -3 2.02 -3 1 C-2.01 0.67 -1.02 0.34 0 0 Z " fill="#4F5C5F" transform="translate(25,59)"/>
<path d="M0 0 C0.99 0 1.98 0 3 0 C3.33 1.32 3.66 2.64 4 4 C2.02 4.99 2.02 4.99 0 6 C-1.125 2.25 -1.125 2.25 0 0 Z " fill="#1B2224" transform="translate(74,115)"/>
<path d="M0 0 C-0.33 1.98 -0.66 3.96 -1 6 C-3.46278801 4.768606 -4.42497687 3.21935077 -6 1 C-3 0 -3 0 0 0 Z " fill="#B7BBB6" transform="translate(89,106)"/>
<path d="M0 0 C0.99 0 1.98 0 3 0 C4.1577506 3.47325181 4.06866652 6.36067448 4 10 C3.34 9.67 2.68 9.34 2 9 C2.33 7.35 2.66 5.7 3 4 C2.01 4 1.02 4 0 4 C0 2.68 0 1.36 0 0 Z " fill="#131E20" transform="translate(70,84)"/>
<path d="M0 0 C0.66 0.33 1.32 0.66 2 1 C1.34 2.65 0.68 4.3 0 6 C-0.99 6 -1.98 6 -3 6 C-3 4.35 -3 2.7 -3 1 C-2.01 0.67 -1.02 0.34 0 0 Z " fill="#C7C7C2" transform="translate(124,69)"/>
<path d="M0 0 C0 1.32 0 2.64 0 4 C-2.66666667 2.66666667 -5.33333333 1.33333333 -8 0 C-4.94736336 -0.98120464 -3.05263664 -0.98120464 0 0 Z " fill="#DDE0E0" transform="translate(100,61)"/>
<path d="M0 0 C0.598125 0.20625 1.19625 0.4125 1.8125 0.625 C1.1525 1.945 0.4925 3.265 -0.1875 4.625 C-0.8475 4.625 -1.5075 4.625 -2.1875 4.625 C-2.1875 3.965 -2.1875 3.305 -2.1875 2.625 C-3.1775 2.295 -4.1675 1.965 -5.1875 1.625 C-2.1875 -0.375 -2.1875 -0.375 0 0 Z " fill="#222C2E" transform="translate(76.1875,42.375)"/>
<path d="M0 0 C0.99 0.33 1.98 0.66 3 1 C3 2.32 3 3.64 3 5 C1.35 5.33 -0.3 5.66 -2 6 C-1.34 4.02 -0.68 2.04 0 0 Z " fill="#2E3739" transform="translate(78,41)"/>
<path d="M0 0 C2.97 0.495 2.97 0.495 6 1 C5.67 1.99 5.34 2.98 5 4 C3.35 4 1.7 4 0 4 C0 2.68 0 1.36 0 0 Z " fill="#485150" transform="translate(32,38)"/>
<path d="M0 0 C-0.33 0.99 -0.66 1.98 -1 3 C-3.31 2.67 -5.62 2.34 -8 2 C-8 1.34 -8 0.68 -8 0 C-5.13822943 -1.43088528 -3.06624227 -0.59991697 0 0 Z " fill="#222D2F" transform="translate(103,37)"/>
<path d="M0 0 C1.32 0.66 2.64 1.32 4 2 C4 3.32 4 4.64 4 6 C2.68 6.33 1.36 6.66 0 7 C0.33 5.35 0.66 3.7 1 2 C0.34 1.67 -0.32 1.34 -1 1 C-0.67 0.67 -0.34 0.34 0 0 Z " fill="#515958" transform="translate(142,7)"/>
<path d="M0 0 C3.3 0 6.6 0 10 0 C5.25 4 5.25 4 3 4 C3 3.01 3 2.02 3 1 C2.01 0.67 1.02 0.34 0 0 Z " fill="#5C6264" transform="translate(44,3)"/>
<path d="M0 0 C0.66 0 1.32 0 2 0 C1.5206753 4.31392226 0.2542015 6.16569547 -3 9 C-2.01 6.03 -1.02 3.06 0 0 Z " fill="#1F2525" transform="translate(71,112)"/>
<path d="M0 0 C2.475 0.99 2.475 0.99 5 2 C4.67 2.99 4.34 3.98 4 5 C2.35 4.67 0.7 4.34 -1 4 C-0.67 2.68 -0.34 1.36 0 0 Z " fill="#E4E4E0" transform="translate(30,108)"/>
<path d="M0 0 C1 3 1 3 0 6 C-0.99 6 -1.98 6 -3 6 C-3 4.35 -3 2.7 -3 1 C-2.01 0.67 -1.02 0.34 0 0 Z " fill="#BBBCB7" transform="translate(124,98)"/>
<path d="M0 0 C0 0.99 0 1.98 0 3 C-2.31 3.33 -4.62 3.66 -7 4 C-6.67 3.01 -6.34 2.02 -6 1 C-3 0 -3 0 0 0 Z " fill="#C4C6C1" transform="translate(106,73)"/>
<path d="M0 0 C1.98 0 3.96 0 6 0 C6 1.32 6 2.64 6 4 C5.01 4.33 4.02 4.66 3 5 C3 3.68 3 2.36 3 1 C2.01 0.67 1.02 0.34 0 0 Z " fill="#E1EAEB" transform="translate(132,38)"/>
<path d="M0 0 C0.66 0.33 1.32 0.66 2 1 C2 1.66 2 2.32 2 3 C-1 5 -1 5 -4 5 C-2.25 1.125 -2.25 1.125 0 0 Z " fill="#0D1113" transform="translate(65,127)"/>
<path d="M0 0 C0 0.66 0 1.32 0 2 C-3.375 2.625 -3.375 2.625 -7 3 C-7.66 2.34 -8.32 1.68 -9 1 C-5.92677456 0.08941469 -3.19902639 -0.08886184 0 0 Z " fill="#484947" transform="translate(106,93)"/>
<path d="M0 0 C2.375 0.3125 2.375 0.3125 5 1 C5.66 1.99 6.32 2.98 7 4 C5.68 4.33 4.36 4.66 3 5 C2.01 3.35 1.02 1.7 0 0 Z " fill="#3E484A" transform="translate(26,42)"/>
<path d="M0 0 C1.0625 1.8125 1.0625 1.8125 2 4 C1.67 4.99 1.34 5.98 1 7 C0.01 6.67 -0.98 6.34 -2 6 C-2 4.35 -2 2.7 -2 1 C-1.34 0.67 -0.68 0.34 0 0 Z " fill="#4C5658" transform="translate(25,17)"/>
</svg>
